<svg width="20" height="20" viewBox="0 0 20 20" fill="none" xmlns="http://www.w3.org/2000/svg">
<rect x="0.5" y="0.5" width="19" height="19" rx="9.5" fill="white"/>
<path d="M10.7911 5.86693L5.65847 11.102C5.46467 11.3007 5.27712 11.6923 5.23961 11.9634L5.0083 13.9152C4.92702 14.6201 5.45217 15.102 6.17736 14.9815L8.19041 14.6502C8.47174 14.602 8.8656 14.4032 9.0594 14.1984L14.192 8.96336C15.0798 8.05974 15.4799 7.0296 14.0983 5.77054C12.7229 4.52354 11.6789 4.9633 10.7911 5.86693Z" stroke="#044407" stroke-miterlimit="10" stroke-linecap="round" stroke-linejoin="round"/>
<path d="M10 7C10.2367 8.60777 11.4697 9.83689 13 10" stroke="#044407" stroke-miterlimit="10" stroke-linecap="round" stroke-linejoin="round"/>
<rect x="0.5" y="0.5" width="19" height="19" rx="9.5" stroke="#F2FFF2"/>
</svg>
