<svg width="20" height="20" viewBox="0 0 20 20" fill="none" xmlns="http://www.w3.org/2000/svg">
<path d="M6.49101 4.50292C6.94135 4.49455 7.39104 4.54072 7.83029 4.64042C8.20011 4.72116 8.55123 4.87141 8.86499 5.08317C9.15477 5.29375 9.38405 5.57686 9.52981 5.90406C9.69734 6.30642 9.77816 6.73957 9.76701 7.17527C9.78603 7.65367 9.66385 8.1271 9.41569 8.53654C9.15462 8.92325 8.79375 9.23209 8.37136 9.43031C8.94457 9.58484 9.44384 9.93882 9.77938 10.4286C10.1015 10.9475 10.2634 11.5499 10.2448 12.1604C10.2555 12.6472 10.1548 13.1299 9.95057 13.5719C9.76179 13.9574 9.48536 14.2934 9.14343 14.553C8.7914 14.8096 8.39525 14.9996 7.97466 15.1133C7.53851 15.2339 7.08793 15.2945 6.63539 15.2934H1.66675V4.50292H6.49101ZM6.20432 8.86724C6.55816 8.88182 6.90647 8.7759 7.19228 8.56679C7.32915 8.44494 7.43563 8.29276 7.5032 8.12241C7.57077 7.95206 7.59755 7.76826 7.58141 7.58572C7.59057 7.37251 7.54811 7.16024 7.45766 6.96696C7.38092 6.81306 7.26161 6.68444 7.1139 6.59639C6.96429 6.49946 6.79621 6.43461 6.62027 6.40595C6.42937 6.36897 6.23511 6.35214 6.04069 6.35576H3.91766V8.87686H6.20432V8.86724ZM6.32807 13.4612C6.54206 13.4641 6.7556 13.441 6.96402 13.3924C7.15449 13.3504 7.33512 13.2722 7.49616 13.1621C7.65391 13.0521 7.78137 12.9041 7.86672 12.7317C7.9657 12.512 8.01117 12.2719 7.99941 12.0312C8.02087 11.8118 7.99182 11.5904 7.91447 11.384C7.83713 11.1776 7.71356 10.9916 7.55322 10.8404C7.21338 10.5901 6.79692 10.4661 6.37551 10.4898H3.91766V13.4612H6.32807Z" fill="#044407"/>
<path d="M13.4507 13.4214C13.6273 13.5851 13.8355 13.7112 14.0624 13.7921C14.2893 13.8729 14.5303 13.9068 14.7707 13.8916C15.1518 13.9012 15.5255 13.7853 15.8343 13.5616C16.0854 13.3983 16.2756 13.1566 16.3753 12.8741H18.1704C17.9792 13.6784 17.5121 14.3902 16.8504 14.8858C16.2156 15.3071 15.4655 15.5204 14.704 15.4963C14.1605 15.5034 13.6211 15.4012 13.1179 15.1958C12.6627 15.006 12.2544 14.719 11.9216 14.355C11.5901 13.9736 11.3354 13.5316 11.1716 13.0535C10.9877 12.5191 10.8976 11.9569 10.9055 11.3918C10.9022 10.8362 10.9952 10.2842 11.1805 9.76036C11.4295 9.02343 11.9055 8.3843 12.5402 7.9347C13.175 7.4851 13.9358 7.24814 14.7136 7.25782C15.2879 7.24582 15.8557 7.38021 16.3637 7.64832C16.8228 7.90009 17.2189 8.25269 17.5221 8.67959C17.8323 9.12754 18.0546 9.63031 18.1773 10.1612C18.3118 10.7312 18.3598 11.3183 18.3196 11.9026H12.9729C12.9295 12.4516 13.1008 12.9961 13.4507 13.4214ZM15.7965 9.3176C15.6468 9.16795 15.4669 9.05209 15.2687 8.97785C15.0705 8.90361 14.8588 8.87271 14.6476 8.88722C14.3675 8.87654 14.0895 8.9386 13.8405 9.06735C13.6431 9.17601 13.4689 9.32221 13.3276 9.49773C13.2024 9.66229 13.1091 9.84884 13.0526 10.0477C13.0017 10.2136 12.9698 10.3848 12.9577 10.5579H16.2695C16.2406 10.1066 16.0762 9.67459 15.7978 9.31829L15.7965 9.3176Z" fill="#044407"/>
<path d="M16.6806 5.22339H12.5308V6.28422H16.6806V5.22339Z" fill="#044407"/>
</svg>
