<svg width="20" height="20" viewBox="0 0 20 20" fill="none" xmlns="http://www.w3.org/2000/svg">
<path d="M17.8129 13.8131C17.1123 13.0644 15.801 11.9382 15.801 8.24951C15.8022 6.92577 15.3394 5.64298 14.492 4.62184C13.6446 3.6007 12.4657 2.90508 11.1582 2.65464V1.90336C11.1582 1.75183 11.1281 1.60179 11.0698 1.4618C11.0115 1.32181 10.926 1.19461 10.8182 1.08747C10.7104 0.980321 10.5824 0.895329 10.4416 0.837343C10.3008 0.779357 10.1499 0.749512 9.99744 0.749512C9.84501 0.749512 9.69408 0.779357 9.55326 0.837343C9.41243 0.895329 9.28448 0.980321 9.1767 1.08747C9.06891 1.19461 8.98342 1.32181 8.92508 1.4618C8.86675 1.60179 8.83673 1.75183 8.83673 1.90336V2.65464C7.52916 2.90508 6.35027 3.6007 5.5029 4.62184C4.65552 5.64298 4.19264 6.92577 4.19389 8.24951C4.19389 11.9382 2.88255 13.0644 2.182 13.8131C1.98217 14.025 1.87223 14.3053 1.87505 14.5957C1.87519 14.7475 1.90542 14.8977 1.96403 15.0379C2.02263 15.1781 2.10846 15.3054 2.2166 15.4125C2.32473 15.5197 2.45306 15.6046 2.59424 15.6624C2.73542 15.7203 2.88668 15.7498 3.03937 15.7495H16.9607C17.1134 15.7498 17.2646 15.7203 17.4058 15.6624C17.547 15.6046 17.6753 15.5197 17.7834 15.4125C17.8916 15.3054 17.9774 15.1781 18.036 15.0379C18.0946 14.8977 18.1249 14.7475 18.125 14.5957C18.1264 14.3045 18.0146 14.0242 17.8129 13.8131Z" stroke="#044407" stroke-width="1.5"/>
<path d="M8.75 1.37451H11.25V2.62451L10.625 3.31201H10H9.375L8.75 2.62451V1.37451Z" fill="#044407"/>
<path d="M12.5 17.5C12.5 18.163 12.2366 18.7989 11.7678 19.2678C11.2989 19.7366 10.663 20 10 20C9.33696 20 8.70107 19.7366 8.23223 19.2678C7.76339 18.7989 7.5 18.163 7.5 17.5L10 17.5H12.5Z" fill="#044407"/>
</svg>
