<svg width="20" height="20" viewBox="0 0 20 20" fill="none" xmlns="http://www.w3.org/2000/svg">
<rect x="0.75" y="3.75" width="18.5" height="12.5" rx="1.5" stroke="#085F16" stroke-width="1.5"/>
<mask id="path-2-inside-1_702_7900" fill="white">
<path fill-rule="evenodd" clip-rule="evenodd" d="M9.99988 14.375C11.7258 14.375 13.1249 12.4162 13.1249 10C13.1249 7.58375 11.7258 5.625 9.99988 5.625C8.27399 5.625 6.87488 7.58375 6.87488 10C6.87488 12.4162 8.27399 14.375 9.99988 14.375ZM11.6301 12.5V11.6497H10.5683V7.5H9.88997L8.25 8.38362V8.41236L8.44748 9.02964H8.48183L9.64097 8.56987V11.6497H8.48183V12.5H11.6301Z"/>
</mask>
<path fill-rule="evenodd" clip-rule="evenodd" d="M9.99988 14.375C11.7258 14.375 13.1249 12.4162 13.1249 10C13.1249 7.58375 11.7258 5.625 9.99988 5.625C8.27399 5.625 6.87488 7.58375 6.87488 10C6.87488 12.4162 8.27399 14.375 9.99988 14.375ZM11.6301 12.5V11.6497H10.5683V7.5H9.88997L8.25 8.38362V8.41236L8.44748 9.02964H8.48183L9.64097 8.56987V11.6497H8.48183V12.5H11.6301Z" fill="#085F16"/>
<path d="M11.6301 11.6497H13.1301V10.1497H11.6301V11.6497ZM11.6301 12.5V14H13.1301V12.5H11.6301ZM10.5683 11.6497H9.06828V13.1497H10.5683V11.6497ZM10.5683 7.5H12.0683V6H10.5683V7.5ZM9.88997 7.5V6H9.51158L9.17847 6.17948L9.88997 7.5ZM8.25 8.38362L7.5385 7.0631L6.75 7.48795V8.38362H8.25ZM8.25 8.41236H6.75V8.64645L6.82133 8.86942L8.25 8.41236ZM8.44748 9.02964L7.01881 9.4867L7.35247 10.5296H8.44748V9.02964ZM8.48183 9.02964V10.5296H8.76845L9.03488 10.424L8.48183 9.02964ZM9.64097 8.56987H11.141V6.36121L9.08791 7.17555L9.64097 8.56987ZM9.64097 11.6497V13.1497H11.141V11.6497H9.64097ZM8.48183 11.6497V10.1497H6.98183V11.6497H8.48183ZM8.48183 12.5H6.98183V14H8.48183V12.5ZM11.6249 10C11.6249 10.9315 11.3529 11.7123 10.989 12.2217C10.623 12.7341 10.2527 12.875 9.99988 12.875V15.875C11.473 15.875 12.6651 15.0365 13.4302 13.9654C14.1973 12.8915 14.6249 11.4847 14.6249 10H11.6249ZM9.99988 7.125C10.2527 7.125 10.623 7.2659 10.989 7.77826C11.3529 8.28774 11.6249 9.06847 11.6249 10H14.6249C14.6249 8.51529 14.1973 7.10851 13.4302 6.03455C12.6651 4.96347 11.473 4.125 9.99988 4.125V7.125ZM8.37488 10C8.37488 9.06847 8.64686 8.28774 9.01077 7.77826C9.37674 7.2659 9.74709 7.125 9.99988 7.125V4.125C8.52678 4.125 7.33462 4.96347 6.56957 6.03455C5.80246 7.10851 5.37488 8.51529 5.37488 10H8.37488ZM9.99988 12.875C9.74709 12.875 9.37674 12.7341 9.01077 12.2217C8.64686 11.7123 8.37488 10.9315 8.37488 10H5.37488C5.37488 11.4847 5.80246 12.8915 6.56957 13.9654C7.33462 15.0365 8.52678 15.875 9.99988 15.875V12.875ZM10.1301 11.6497V12.5H13.1301V11.6497H10.1301ZM10.5683 13.1497H11.6301V10.1497H10.5683V13.1497ZM9.06828 7.5V11.6497H12.0683V7.5H9.06828ZM9.88997 9H10.5683V6H9.88997V9ZM8.9615 9.70414L10.6015 8.82052L9.17847 6.17948L7.5385 7.0631L8.9615 9.70414ZM9.75 8.41236V8.38362H6.75V8.41236H9.75ZM9.87615 8.57258L9.67867 7.95529L6.82133 8.86942L7.01881 9.4867L9.87615 8.57258ZM8.48183 7.52964H8.44748V10.5296H8.48183V7.52964ZM9.08791 7.17555L7.92877 7.63532L9.03488 10.424L10.194 9.96419L9.08791 7.17555ZM11.141 11.6497V8.56987H8.14097V11.6497H11.141ZM8.48183 13.1497H9.64097V10.1497H8.48183V13.1497ZM9.98183 12.5V11.6497H6.98183V12.5H9.98183ZM11.6301 11H8.48183V14H11.6301V11Z" fill="#085F16" mask="url(#path-2-inside-1_702_7900)"/>
<path d="M2.14037 6.22276C2.13525 6.22488 2.13013 6.22697 2.125 6.22905V5.125H3.22905C3.22697 5.13013 3.22488 5.13525 3.22276 5.14037C3.12225 5.38302 2.97493 5.6035 2.78921 5.78921C2.6035 5.97493 2.38302 6.12225 2.14037 6.22276Z" fill="#085F16" stroke="#085F16" stroke-width="1.5"/>
<path d="M17.8595 6.22276C17.8646 6.22488 17.8697 6.22697 17.8749 6.22905V5.125H16.7708C16.7729 5.13013 16.775 5.13525 16.7771 5.14037C16.8776 5.38302 17.0249 5.6035 17.2107 5.78921C17.3964 5.97493 17.6169 6.12225 17.8595 6.22276L17.5725 6.91567L17.8595 6.22276Z" fill="#085F16" stroke="#085F16" stroke-width="1.5"/>
<path d="M2.14037 13.7772C2.13525 13.7751 2.13013 13.773 2.125 13.771V14.875H3.22905C3.22697 14.8699 3.22488 14.8647 3.22276 14.8596C3.12225 14.617 2.97493 14.3965 2.78921 14.2108C2.6035 14.0251 2.38302 13.8778 2.14037 13.7772Z" fill="#085F16" stroke="#085F16" stroke-width="1.5"/>
<path d="M17.8595 13.7772C17.8646 13.7751 17.8697 13.773 17.8749 13.771V14.875H16.7708C16.7729 14.8699 16.775 14.8647 16.7771 14.8596C16.8776 14.617 17.0249 14.3965 17.2107 14.2108C17.3964 14.0251 17.6169 13.8778 17.8595 13.7772Z" fill="#085F16" stroke="#085F16" stroke-width="1.5"/>
</svg>
