<svg width="404" height="463" viewBox="0 0 404 463" fill="none" xmlns="http://www.w3.org/2000/svg">
<path d="M75.5792 147.975L78.8502 160.269L76.2991 150.538L67.5981 164L65.6028 147.553V121.601L64 97.953L65.8971 89.5187L69.1681 81.9927L73.5512 75.5048L81.8925 70.3469L85.687 68.5628L93.2102 66L102.075 69.9901L113.425 76.8673L122.094 85.5935L127.981 90.9785L125.79 79.2029L133.215 87.7346L136.715 98.1477L141 113.459L140.509 128.706L130.239 133.118L115.976 138.535L97.8224 140.806L98.3459 134.967L99.8177 126.694H99.4252C95.8895 125.262 92.1463 124.397 88.3363 124.132L81.173 123.613C79.9123 123.531 78.6492 123.73 77.4767 124.197L76.8222 124.489C75.5169 125.062 74.3883 125.969 73.5512 127.116C72.8041 128.087 72.287 129.212 72.0378 130.408C71.7887 131.604 71.8141 132.841 72.1121 134.026L75.5792 147.975Z" fill="#F5E0CF"/>
<path d="M116.098 223.974H89.0549L68 220.738L68.8371 211.383L71.0587 202.385L72.6039 195.264L68.8693 175.066L78.7853 158.041C79.0557 159.033 79.5268 159.959 80.1694 160.76L83.8395 165.097C84.48 165.839 85.2711 166.433 86.1598 166.841C87.0484 167.248 88.0137 167.46 88.9905 167.46C89.62 167.464 90.2477 167.388 90.858 167.233L111.945 161.083C112.496 160.935 113.026 160.718 113.522 160.436L138.086 146L137.797 154.221V164.32C137.785 167.982 138.485 171.61 139.857 175.002C141.175 178.407 141.852 182.029 141.853 185.683C141.853 186.492 141.853 187.301 141.853 188.111C141.853 188.92 141.853 189.729 141.853 190.538C141.845 193.12 142.191 195.691 142.883 198.177L149 220.543L147.809 221.547C147.809 221.547 140.114 223.457 139.342 223.78C138.569 224.104 116.098 223.974 116.098 223.974Z" fill="#F5E0CF"/>
<path d="M183.817 109.884L184.468 110.437C184.863 110.77 185.143 111.22 185.266 111.723C185.388 112.225 185.348 112.753 185.151 113.231C184.983 113.637 184.712 113.992 184.364 114.261C184.015 114.529 183.603 114.7 183.167 114.759L180.729 115.051L182.419 119.34L181.054 121.42L176.535 122.915C176.263 123.006 176.013 123.151 175.798 123.339C175.582 123.527 175.406 123.756 175.279 124.013C175.152 124.269 175.077 124.549 175.058 124.834C175.039 125.12 175.077 125.406 175.169 125.677C175.295 126.017 175.332 126.384 175.275 126.743C175.218 127.102 175.07 127.44 174.844 127.724L173.771 129.056L174.454 130.551L173.739 133.183C173.564 133.739 173.179 134.206 172.665 134.483L168.732 136.66C165.62 138.371 162.21 139.474 158.685 139.91L152.475 140.657L138.95 148.423L114.143 162.949C113.646 163.218 113.123 163.436 112.582 163.598L91.2541 169.74C90.639 169.906 90.0051 169.993 89.3681 170C88.3781 170.002 87.3995 169.788 86.501 169.373C85.6024 168.957 84.8056 168.351 84.1661 167.595L80.4596 163.241C79.7989 162.445 79.3218 161.513 79.0618 160.511L75.8105 148.131L72.2342 133.898C71.9451 132.711 71.9233 131.474 72.1707 130.277C72.4181 129.08 72.9283 127.953 73.6646 126.977C74.4966 125.828 75.6185 124.919 76.9159 124.345L77.566 124.085C78.7398 123.605 80.0063 123.394 81.2725 123.467L88.3278 123.987C92.1258 124.249 95.8576 125.116 99.3822 126.554H99.7724L98.309 134.84L97.7891 140.69L115.833 138.415L130.009 132.988L140.218 128.569L147.403 123.695L151.955 114.174C152.087 113.906 152.251 113.655 152.443 113.426L154.133 111.217C154.726 110.494 155.535 109.982 156.442 109.754L157.872 109.429C158.306 109.33 158.723 109.165 159.108 108.942L161.969 107.22C162.388 106.956 162.85 106.769 163.334 106.667C163.973 106.555 164.629 106.594 165.25 106.78C165.871 106.966 166.44 107.295 166.911 107.74L169.187 109.884L182.68 91.6222C182.868 91.3818 183.121 91.1995 183.408 91.096C183.696 90.9926 184.007 90.9722 184.305 91.0373L192.791 93.1169C193.042 93.175 193.275 93.2943 193.469 93.4643C193.663 93.6343 193.811 93.8497 193.901 94.0911C193.992 94.3325 194.021 94.5924 193.986 94.8477C193.951 95.103 193.853 95.3457 193.701 95.5541L183.817 109.884Z" fill="#F5BD8E"/>
<path d="M193.673 95.6473L183.42 110H169L182.508 91.626C182.697 91.3842 182.95 91.2007 183.238 91.0966C183.526 90.9925 183.837 90.9721 184.136 91.0375L192.631 93.1299C192.905 93.1643 193.165 93.2708 193.384 93.4385C193.603 93.6062 193.774 93.8292 193.88 94.0848C193.986 94.3405 194.023 94.6197 193.986 94.8941C193.95 95.1685 193.842 95.4283 193.673 95.6473Z" fill="url(#paint0_linear_203_156)"/>
<path d="M136.157 23.7549C135.143 23.2625 134.034 23.0046 132.909 23H130.214C128.451 23.0055 126.744 23.6192 125.374 24.7394C124.926 25.1051 124.523 25.5238 124.173 25.9865L118.619 33.2065L116.28 36.4884C115.814 37.1055 115.147 37.5358 114.397 37.7027C113.637 37.8083 112.865 37.6389 112.217 37.2244C111.569 36.81 111.087 36.1773 110.857 35.4383L110.467 33.9942C110.341 33.4714 110.057 33.0012 109.655 32.6487L108.063 31.2046C107.676 30.8467 107.193 30.6109 106.675 30.5261C106.157 30.4413 105.626 30.5113 105.146 30.7274C104.667 30.9435 104.26 31.2962 103.976 31.7425C103.693 32.1887 103.5 32.6487 103.5 32.6487C103 32.2973 103 34.5 103 34.5V36C102.992 38.1825 102.782 40.3801 103.976 42.1989L103.549 46.5965L102.964 49.8784C102.555 52.148 101.857 54.3543 100.885 56.4421C99.4162 59.6314 97.3544 62.5059 94.812 64.9092L93 66L102.5 70.5L114.397 77.5L122 86L128.619 91.5L126.381 79.054L126.836 75.5097C126.908 74.8828 127.103 74.2767 127.409 73.7266C127.715 73.1765 128.126 72.6936 128.619 72.3057C129.112 71.9178 129.676 71.6328 130.279 71.4673C130.881 71.3018 131.511 71.2592 132.13 71.3417C132.937 71.4633 133.762 71.3844 134.533 71.112H134.826C135.658 70.8047 136.395 70.2824 136.965 69.5971C137.535 68.9119 137.917 68.0876 138.074 67.2066C138.204 66.5457 138.469 65.9196 138.853 65.3687L144.829 56.3108C145.382 55.4993 145.799 54.6012 146.063 53.6525L147.2 49.8455C147.485 48.9214 147.627 47.9583 147.622 46.9903C147.627 45.3176 148.04 43.6719 148.824 42.1989L149.409 41.1158C150.13 39.7947 150.541 38.3238 150.61 36.8166L151 28.5792C151 28.5792 141.256 26.3475 140.477 26.0849C139.698 25.8224 137.781 24.5425 136.157 23.7549Z" fill="#F5BD8E"/>
<path d="M154.765 24.4889L154.269 27.3433L152.089 28.6732L151.627 28.9327C151.627 28.9327 141.717 26.7269 140.925 26.4674C140.132 26.208 138.084 25.2025 136.433 24.424C135.402 23.9374 134.273 23.6825 133.13 23.6779H130.388C128.596 23.6833 126.86 24.2899 125.467 25.3971C125.019 25.7671 124.609 26.18 124.245 26.6297L118.596 33.7657L116.218 37.0094C115.744 37.6194 115.065 38.0447 114.302 38.2097C113.53 38.314 112.745 38.1465 112.086 37.7369C111.427 37.3273 110.937 36.7019 110.702 35.9715L110.306 34.5443C110.178 34.0276 109.889 33.5628 109.48 33.2144L107.861 31.7871C107.419 31.3909 106.857 31.1478 106.26 31.0951C105.664 31.0424 105.066 31.1829 104.558 31.4952C104.155 31.7351 103.822 32.0731 103.59 32.4765C103.359 32.8799 103.237 33.3352 103.237 33.7982V36.3932C103.229 38.5503 103.873 40.6613 105.087 42.4589L103.237 47L100.991 39.3773L100 31.1384L101.321 21.2127L102.114 15.1795C102.575 11.6379 104.267 8.36105 106.904 5.90253C108.223 4.664 109.755 3.66465 111.429 2.95077L115.128 1.32893C117.475 0.317378 120.035 -0.127498 122.593 0.0314743L128.473 0.4207C130.165 0.509422 131.83 0.882528 133.394 1.52364L144.096 5.77285C146.011 6.53578 147.768 7.63496 149.282 9.01653C152.139 11.5834 154.054 15.0036 154.732 18.7476C155.078 20.6453 155.089 22.5874 154.765 24.4889Z" fill="#442D1D"/>
<path d="M68.8751 177.794L72.6762 198.235L71.0706 205.43C68.506 206.039 65.8492 206.162 63.2393 205.79L50.722 203.991L48.6577 203.566L42.1043 201.8C39.6828 201.142 37.4334 199.968 35.5101 198.359C33.5868 196.75 32.0358 194.744 30.9638 192.479C30.1184 190.72 29.5858 188.827 29.3907 186.886L27.6871 170.534V157.19C25.912 150.911 25.0077 144.418 25 137.894V120.037C25.0037 118.026 25.3245 116.029 25.9504 114.117L28.2767 107.119C29.0945 104.594 30.4469 102.274 32.2418 100.316C34.7389 97.5658 37.9835 95.5999 41.5803 94.6579L45.381 93.7094L66.0244 89L64.124 97.5032L65.7296 121.313V147.477L67.7283 164.058L76.4445 150.486L79 160.297L68.8751 177.794Z" fill="#F97D65"/>
<path d="M106.891 101.984L106.561 106.516C106.422 108.418 106.011 110.292 105.341 112.083L100.033 126L100.528 115.611C100.577 114.932 100.577 114.25 100.528 113.571L99.9674 108.749C99.9674 108.231 99.9676 107.745 99.7038 107.26L99.2752 105.609C99.117 104.905 99.0069 104.192 98.9456 103.473L98.352 94.1194L97.3298 85.0569C97.3298 84.6685 97.3301 84.2801 97.1652 83.9241L96.6706 81.5614C96.365 80.0782 95.7838 78.6628 94.9562 77.3861L94.231 76.2533C93.3077 74.7914 92.0839 73.5347 90.6376 72.5636C89.2531 71.6301 87.6965 70.9705 86.055 70.6216L82 69.7801L85.857 68L87.1428 68.2265C91.2306 68.9262 95.0034 70.8346 97.9564 73.6964C99.9974 75.6735 101.583 78.0575 102.605 80.6875L104.517 85.5101C105.099 86.9274 105.519 88.4036 105.77 89.9118L106.891 97.8415C107.036 99.2188 107.036 100.607 106.891 101.984Z" fill="#F97D65"/>
<path d="M204 440.745C204.001 441.525 203.763 442.286 203.319 442.926C202.875 443.566 202.246 444.053 201.517 444.322L199.296 445.175C190.768 448.364 181.742 449.998 172.642 450H165.586C164.019 450 162.32 450 160.883 450L145.041 448.95L136.221 447.571C134.92 447.378 133.682 446.883 132.604 446.126C131.527 445.368 130.64 444.368 130.015 443.206C129.027 441.333 128.749 439.165 129.231 437.102L132.04 425.45L163.039 418L165.162 420.823C168.095 424.651 171.875 427.741 176.202 429.848L186.426 434.804C186.812 435.006 187.234 435.129 187.668 435.165L198.643 436.445L199.362 436.609L201.354 437.233C202.098 437.479 202.75 437.947 203.222 438.574C203.695 439.201 203.966 439.958 204 440.745Z" fill="#EE5F61"/>
<path d="M48.0792 448.845C47.449 449.332 46.7215 449.677 45.9458 449.857C45.1702 450.037 44.3647 450.047 43.5847 449.888L37.2665 448.65C36.5217 448.493 35.8139 448.195 35.182 447.77C24.9594 440.744 16.7246 431.196 11.2762 420.051L10.625 418.716L1.27771 402.82C0.568675 401.574 0.142707 400.186 0.0301328 398.756C-0.0824415 397.326 0.121297 395.889 0.626487 394.547C1.38059 392.543 2.79304 390.854 4.6324 389.759L11.1462 385.785C12.3021 385.063 13.2371 384.038 13.8493 382.821C14.3085 381.903 14.9587 381.093 15.7564 380.447C16.5541 379.801 17.4808 379.333 18.4742 379.075L22.5453 378C22.556 382.603 23.8412 387.112 26.2582 391.029L28.6683 394.97L29.7429 396.143C33.3196 400.038 38.0413 402.695 43.2265 403.732V405.263C43.2659 405.855 43.1854 406.449 42.9895 407.008C42.7936 407.568 42.4864 408.082 42.0866 408.52C41.6102 409.026 41.2636 409.64 41.0764 410.31C40.8892 410.979 40.8668 411.684 41.0116 412.364L43.3569 423.536C44.127 427.241 45.2839 430.855 46.809 434.318L49.5446 440.604C49.7847 441.174 49.9278 441.779 49.968 442.396V444.024C50.0642 444.921 49.9427 445.827 49.6138 446.666C49.285 447.505 48.7586 448.253 48.0792 448.845Z" fill="#EE5F61"/>
<path d="M159.852 397.251C159.536 397.676 159.365 398.189 159.363 398.718C159.356 399.167 159.479 399.608 159.715 399.989C159.952 400.371 160.294 400.676 160.699 400.869H160.894C161.243 401.038 161.545 401.291 161.772 401.605C161.999 401.919 162.145 402.285 162.197 402.669C162.249 403.053 162.204 403.444 162.068 403.807C161.932 404.169 161.708 404.493 161.416 404.748L160.405 405.628C160.057 405.932 159.805 406.333 159.684 406.78C159.562 407.226 159.575 407.699 159.721 408.138L163.209 418.634L132.312 426L130.682 414.853L132.312 411.593L129.411 410.159C128.953 409.922 128.534 409.614 128.173 409.246C127.443 408.456 127.036 407.421 127.032 406.345C127.031 405.903 127.097 405.464 127.227 405.041L127.944 402.76C128.151 402.025 128.571 401.367 129.15 400.869L129.541 400.478C129.959 400.095 130.292 399.629 130.519 399.109C130.519 398.881 130.715 398.588 130.812 398.294C130.846 398.013 130.846 397.728 130.812 397.447V396.567C130.863 394.227 130.666 391.889 130.226 389.591C130.031 388.587 129.769 387.596 129.443 386.625C129.125 385.518 128.744 384.43 128.303 383.366C127.482 381.429 126.838 379.422 126.38 377.368C126.38 376.684 126.119 375.999 126.022 375.315L125.761 373.653V372.316L125.337 369.415L124.131 360.973L123.577 356.964L119.829 331.703C119.844 331.529 119.844 331.355 119.829 331.181C119.678 330.841 119.431 330.552 119.119 330.35C118.806 330.147 118.441 330.04 118.069 330.04C117.656 330.033 117.252 330.164 116.922 330.412C116.591 330.66 116.353 331.011 116.244 331.41L115.853 332.615C115.757 332.888 115.613 333.142 115.429 333.365L112.724 336.234L62.6636 388.385C62.0338 389.049 61.1665 389.436 60.2518 389.461H55.9826C55.1614 389.51 54.3836 389.847 53.7872 390.414C53.1909 390.981 52.8142 391.74 52.7234 392.558C52.65 393.332 52.3172 394.06 51.7789 394.622C51.2406 395.184 50.5283 395.547 49.7575 395.654L48.7147 395.817C48.0922 395.903 47.504 396.153 47.0111 396.543C46.5183 396.933 46.1384 397.448 45.9115 398.034L43.6629 403.868C38.4914 402.809 33.783 400.153 30.2026 396.273L29.1272 395.1L26.7155 391.156C24.3123 387.23 23.0275 382.721 23 378.118L23.6843 375.902C23.8272 375.337 24.1333 374.827 24.5643 374.435L27.8235 371.175C28.347 370.675 29.0029 370.336 29.7136 370.197H29.9746C30.8414 370.053 31.6214 369.587 32.1592 368.892C32.697 368.197 32.9526 367.324 32.8749 366.449V366.156C32.8756 365.671 32.9777 365.191 33.1741 364.748C33.3705 364.305 33.6572 363.907 34.0159 363.581L60.0891 339.46L68.0739 331.768C68.319 331.499 68.5175 331.19 68.6607 330.855L69.7687 327.596C69.8635 327.309 70.0167 327.045 70.2186 326.821C70.4206 326.597 70.6669 326.416 70.9419 326.292L77.7208 323.033C78.1019 322.862 78.4208 322.577 78.6335 322.218L81.4037 317.948C81.5499 317.691 81.7516 317.47 81.9941 317.301C82.2365 317.131 82.5137 317.019 82.8053 316.97C83.3051 316.83 83.7462 316.532 84.0633 316.121C84.3803 315.71 84.5566 315.207 84.5653 314.688V314.199C84.4013 311.338 83.5874 308.551 82.1858 306.051C80.575 303.195 79.7226 299.975 79.7092 296.696V296.5V291.35C79.7588 290.558 79.7588 289.763 79.7092 288.971L77.3624 268.078L72.9952 252.106C71.9797 248.093 71.2071 244.022 70.6813 239.915L68.1065 220L89.4214 223.096H116.798C116.798 223.096 139.384 223.422 140.199 223.096C141.014 222.771 148.77 220.88 148.77 220.88L150.302 225.737C153.369 235.591 154.703 245.903 154.246 256.213L152.649 291.057C152.442 295.46 152.562 299.873 153.007 304.258L154.507 320.034C154.537 320.398 154.602 320.758 154.702 321.109L156.201 326.064C156.217 326.183 156.217 326.303 156.201 326.422C156.231 326.562 156.231 326.707 156.201 326.846C156.407 328.174 156.117 329.532 155.387 330.66C155.198 330.963 154.98 331.247 154.734 331.507L154.148 332.224C154.148 332.453 153.887 332.681 153.822 332.876L153.301 334.245C153.251 334.613 153.251 334.986 153.301 335.353C153.298 335.966 153.408 336.574 153.626 337.146L154.8 340.862C155.158 342.101 155.452 343.339 155.778 344.61C156.364 347.12 156.886 349.663 157.244 352.205L157.603 354.389L157.929 356.54V357.583L158.385 360.549V361.429L158.613 362.929L158.841 364.689L163.241 379.715C163.241 380.172 163.469 380.595 163.567 381.052C164.424 385.056 164.002 389.229 162.361 392.981L161.579 394.448C161.073 395.4 160.484 396.305 159.819 397.154L159.852 397.251Z" fill="url(#paint1_linear_203_156)"/>
<path d="M117.085 329.965C116.926 330.009 116.758 330.009 116.599 329.965C116.342 329.823 116.147 329.578 116.056 329.281C115.965 328.985 115.985 328.662 116.113 328.382L119.153 321.786L120.765 287.42C120.738 287.245 120.747 287.066 120.79 286.896C120.834 286.725 120.911 286.566 121.016 286.431C121.122 286.296 121.254 286.188 121.402 286.113C121.55 286.039 121.711 286 121.875 286C122.038 286 122.2 286.039 122.348 286.113C122.496 286.188 122.628 286.296 122.733 286.431C122.839 286.566 122.916 286.725 122.959 286.896C123.003 287.066 123.012 287.245 122.985 287.42L121.343 322.049C121.373 322.202 121.373 322.359 121.343 322.511L118.302 329.47C118.168 329.675 117.981 329.832 117.764 329.92C117.547 330.008 117.311 330.024 117.085 329.965Z" fill="#0E7500"/>
<circle cx="146" cy="44" r="1" fill="#593D5A"/>
<circle cx="135" cy="42" r="1" fill="#593D5A"/>
<path d="M130 59.1836C130 59.1836 131.432 62.5893 134.44 62.4884C137.448 62.3875 138.115 60.834 138.115 60.834" stroke="#593D5A" stroke-width="0.5" stroke-linecap="round"/>
<path opacity="0.07" d="M117 463C181.617 463 234 459.642 234 455.5C234 451.358 181.617 448 117 448C52.3826 448 0 451.358 0 455.5C0 459.642 52.3826 463 117 463Z" fill="black"/>
<path d="M206.584 319.954C200.235 322.863 194.892 327.595 191.232 333.549C187.572 339.504 185.76 346.413 186.025 353.401C186.964 370.088 200.156 384.074 215.37 390.923C230.584 397.771 247.7 398.808 264.359 399.773L349.192 404.595C363.636 405.415 379.717 405.849 391.296 396.975C404.343 386.944 407.184 367.17 400.54 352.099C393.896 337.027 379.572 326.465 364.214 320.75C356.414 317.784 347.82 315.927 339.731 317.929C331.643 319.93 324.373 327.02 324.3 335.387C329.24 329.921 332.847 323.381 334.838 316.283C336.829 309.185 337.15 301.721 335.776 294.477C334.402 287.233 331.371 280.407 326.919 274.535C322.468 268.663 316.718 263.904 310.121 260.633C296.881 254.074 280.151 254.291 267.849 262.49C257.522 269.338 250.998 280.913 248.037 292.922C245.51 302.833 247.773 315.686 244.186 324.584C230.512 322.052 221.629 313.371 206.584 319.954Z" fill="#66B88D"/>
<path d="M286.152 400H285.838C285.236 399.899 284.694 399.576 284.322 399.095C283.949 398.613 283.774 398.01 283.831 397.406C288.314 363.096 286.768 328.275 279.263 294.491C279.094 294.163 279.005 293.8 279 293.432C278.996 293.063 279.076 292.699 279.236 292.366C279.396 292.034 279.631 291.742 279.922 291.514C280.214 291.287 280.554 291.128 280.917 291.052C281.28 290.976 281.655 290.983 282.014 291.074C282.374 291.165 282.707 291.337 282.989 291.577C283.271 291.816 283.493 292.117 283.64 292.456C283.786 292.795 283.851 293.162 283.831 293.53C291.433 327.828 293.004 363.175 288.473 398.006C288.378 398.554 288.095 399.052 287.672 399.416C287.249 399.779 286.712 399.986 286.152 400Z" fill="#655850"/>
<path d="M288.324 385C287.992 385.006 287.663 384.939 287.36 384.803C287.057 384.667 286.787 384.465 286.569 384.213C286.174 383.736 285.972 383.127 286.003 382.507C286.035 381.886 286.298 381.301 286.74 380.868C298.81 369.909 312.355 360.727 326.973 353.596C327.256 353.35 327.591 353.173 327.953 353.078C328.315 352.984 328.693 352.975 329.059 353.052C329.425 353.128 329.768 353.289 330.063 353.521C330.357 353.753 330.595 354.05 330.757 354.39C330.92 354.73 331.003 355.102 331 355.479C330.997 355.857 330.908 356.228 330.74 356.565C330.572 356.902 330.329 357.195 330.031 357.422C329.733 357.649 329.387 357.804 329.02 357.875C314.799 364.813 301.624 373.746 289.883 384.409C289.448 384.785 288.896 384.994 288.324 385Z" fill="#655850"/>
<path d="M286.76 355C286.139 354.991 285.545 354.742 285.104 354.306L257.318 325.584C257.053 325.123 256.949 324.587 257.023 324.06C257.098 323.534 257.345 323.047 257.728 322.677C258.11 322.306 258.605 322.073 259.135 322.015C259.664 321.956 260.198 322.075 260.653 322.353L288.44 351.075C288.724 351.413 288.909 351.824 288.974 352.261C289.039 352.698 288.981 353.145 288.807 353.551C288.634 353.958 288.35 354.308 287.989 354.564C287.627 354.82 287.202 354.971 286.76 355Z" fill="#655850"/>
<path opacity="0.07" d="M295.5 413C333.884 413 365 409.642 365 405.5C365 401.358 333.884 398 295.5 398C257.116 398 226 401.358 226 405.5C226 409.642 257.116 413 295.5 413Z" fill="black"/>
<defs>
<linearGradient id="paint0_linear_203_156" x1="169.833" y1="110" x2="187.612" y2="87.0101" gradientUnits="userSpaceOnUse">
<stop stop-color="#008CE9"/>
<stop offset="1" stop-color="#00BB9A"/>
<stop offset="1" stop-color="#68E0CF"/>
</linearGradient>
<linearGradient id="paint1_linear_203_156" x1="27.7" y1="426" x2="212.171" y2="301.913" gradientUnits="userSpaceOnUse">
<stop stop-color="#008CE9"/>
<stop offset="1" stop-color="#00BB9A"/>
<stop offset="1" stop-color="#68E0CF"/>
</linearGradient>
</defs>
</svg>
