<svg width="25" height="25" viewBox="0 0 25 25" fill="none" xmlns="http://www.w3.org/2000/svg">
<path d="M17.7083 13.9584V17.0834C17.7083 21.2501 16.0416 22.9167 11.8749 22.9167H7.91658C3.74992 22.9167 2.08325 21.2501 2.08325 17.0834V13.1251C2.08325 8.95842 3.74992 7.29175 7.91658 7.29175H11.0416" stroke="#044407" stroke-width="1.5" stroke-linecap="round" stroke-linejoin="round"/>
<path d="M17.7084 13.9584H14.3751C11.8751 13.9584 11.0417 13.1251 11.0417 10.6251V7.29175L17.7084 13.9584Z" stroke="#044407" stroke-width="1.5" stroke-linecap="round" stroke-linejoin="round"/>
<path d="M12.0833 2.08325H16.2499" stroke="#044407" stroke-width="1.5" stroke-linecap="round" stroke-linejoin="round"/>
<path d="M7.29175 5.20825C7.29175 3.47909 8.68758 2.08325 10.4167 2.08325H13.1459" stroke="#044407" stroke-width="1.5" stroke-linecap="round" stroke-linejoin="round"/>
<path d="M22.9166 8.33325V14.7812C22.9166 16.3958 21.6041 17.7083 19.9895 17.7083" stroke="#044407" stroke-width="1.5" stroke-linecap="round" stroke-linejoin="round"/>
<path d="M22.9167 8.33325H19.7917C17.448 8.33325 16.6667 7.552 16.6667 5.20825V2.08325L22.9167 8.33325Z" stroke="#044407" stroke-width="1.5" stroke-linecap="round" stroke-linejoin="round"/>
</svg>
