<svg width="20" height="20" viewBox="0 0 20 20" fill="none" xmlns="http://www.w3.org/2000/svg">
<path d="M15.7755 4.70126C14.7133 4.21384 13.5741 3.85473 12.3831 3.64906C12.3614 3.64509 12.3397 3.65501 12.3286 3.67485C12.1821 3.93541 12.0198 4.27534 11.9062 4.54253C10.6251 4.35074 9.35066 4.35074 8.09589 4.54253C7.98223 4.2694 7.81406 3.93541 7.6669 3.67485C7.65573 3.65567 7.63406 3.64575 7.61237 3.64906C6.422 3.85407 5.28287 4.21318 4.21993 4.70126C4.21073 4.70523 4.20284 4.71184 4.19761 4.72044C2.03691 7.94846 1.44501 11.0971 1.73538 14.2068C1.73669 14.222 1.74523 14.2366 1.75706 14.2458C3.18262 15.2927 4.56352 15.9283 5.91878 16.3495C5.94047 16.3562 5.96345 16.3482 5.97726 16.3304C6.29784 15.8926 6.58362 15.431 6.82864 14.9455C6.8431 14.9171 6.8293 14.8833 6.79974 14.8721C6.34646 14.7002 5.91484 14.4905 5.49965 14.2524C5.46681 14.2333 5.46418 14.1863 5.49439 14.1638C5.58176 14.0983 5.66916 14.0302 5.75258 13.9614C5.76768 13.9489 5.78871 13.9462 5.80646 13.9541C8.53406 15.1995 11.487 15.1995 14.1824 13.9541C14.2002 13.9456 14.2212 13.9482 14.237 13.9608C14.3204 14.0295 14.4078 14.0983 14.4958 14.1638C14.526 14.1863 14.5241 14.2333 14.4912 14.2524C14.076 14.4951 13.6444 14.7002 13.1905 14.8714C13.1609 14.8827 13.1478 14.9171 13.1622 14.9455C13.4125 15.4303 13.6983 15.8919 14.013 16.3297C14.0261 16.3482 14.0497 16.3562 14.0714 16.3495C15.4333 15.9283 16.8142 15.2927 18.2397 14.2458C18.2522 14.2366 18.2601 14.2227 18.2614 14.2075C18.6089 10.6124 17.6793 7.4895 15.7972 4.72109C15.7926 4.71184 15.7847 4.70523 15.7755 4.70126ZM7.23596 12.3133C6.41477 12.3133 5.73812 11.5594 5.73812 10.6335C5.73812 9.70764 6.40165 8.95372 7.23596 8.95372C8.07683 8.95372 8.74693 9.71426 8.73378 10.6335C8.73378 11.5594 8.07026 12.3133 7.23596 12.3133ZM12.774 12.3133C11.9528 12.3133 11.2762 11.5594 11.2762 10.6335C11.2762 9.70764 11.9397 8.95372 12.774 8.95372C13.6149 8.95372 14.2849 9.71426 14.2718 10.6335C14.2718 11.5594 13.6149 12.3133 12.774 12.3133Z" fill="#044407"/>
</svg>
