<svg width="20" height="20" viewBox="0 0 20 20" fill="none" xmlns="http://www.w3.org/2000/svg">
<path d="M1.88281 13.7422C2.0602 13.9398 2.27693 14.0982 2.51909 14.2071C2.76125 14.3161 3.02351 14.3733 3.28906 14.375H7.5V15.625C7.50206 16.4532 7.83196 17.2468 8.41757 17.8324C9.00317 18.418 9.79683 18.7479 10.625 18.75C10.7411 18.7491 10.8548 18.7166 10.9539 18.656C11.0529 18.5955 11.1337 18.5091 11.1875 18.4063L14.1406 12.5H17.5C17.8315 12.5 18.1495 12.3683 18.3839 12.1339C18.6183 11.8995 18.75 11.5815 18.75 11.25V4.375C18.75 4.04348 18.6183 3.72554 18.3839 3.49112C18.1495 3.2567 17.8315 3.125 17.5 3.125L4.22656 3.125C3.7705 3.12689 3.33062 3.29425 2.98865 3.59599C2.64667 3.89774 2.42585 4.31335 2.36719 4.76562L1.42969 12.2656C1.3985 12.5297 1.42268 12.7974 1.5007 13.0516C1.57872 13.3059 1.70885 13.541 1.88281 13.7422ZM17.5 11.25H14.375L14.375 4.375H17.5V11.25Z" fill="#9E9E9E"/>
</svg>
