<svg width="20" height="20" viewBox="0 0 20 20" fill="none" xmlns="http://www.w3.org/2000/svg">
<path fill-rule="evenodd" clip-rule="evenodd" d="M10.0001 1.66675C5.39958 1.66675 1.66675 5.39958 1.66675 10.0001C1.66675 14.6006 5.39958 18.3334 10.0001 18.3334C14.5915 18.3334 18.3334 14.6006 18.3334 10.0001C18.3334 5.39958 14.5915 1.66675 10.0001 1.66675ZM15.5044 5.50803C16.4986 6.71917 17.0952 8.26473 17.1132 9.93682C16.8783 9.89162 14.5283 9.4126 12.1602 9.71085C12.106 9.59337 12.0608 9.46682 12.0066 9.34028C11.862 8.99683 11.6993 8.64433 11.5366 8.30992C14.1577 7.2434 15.3508 5.70688 15.5044 5.50803ZM10.0001 2.89596C11.8077 2.89596 13.4618 3.57383 14.7181 4.68555C14.5915 4.86632 13.516 6.30342 10.9853 7.25243C9.81932 5.11035 8.52683 3.35691 8.328 3.08576C8.86125 2.95923 9.42163 2.89596 10.0001 2.89596ZM6.97225 3.5648C7.16205 3.81786 8.42742 5.58035 9.61143 7.67723C6.28533 8.56298 3.34788 8.54492 3.03153 8.54492C3.49248 6.33957 4.98382 4.50478 6.97225 3.5648ZM2.87788 10.0091C2.87788 9.93682 2.87788 9.86452 2.87788 9.7922C3.18519 9.80123 6.63783 9.84643 10.1899 8.77992C10.3978 9.1776 10.5876 9.58432 10.7683 9.99105C10.6779 10.0182 10.5785 10.0453 10.4881 10.0724C6.8186 11.2564 4.86632 14.4921 4.70363 14.7633C3.57383 13.5069 2.87788 11.8349 2.87788 10.0091ZM10.0001 17.1223C8.35512 17.1223 6.83667 16.5619 5.63457 15.6219C5.76112 15.3598 7.20725 12.576 11.2202 11.1751C11.2383 11.166 11.2474 11.166 11.2654 11.157C12.2687 13.751 12.6754 15.9292 12.7839 16.5529C11.9252 16.9234 10.9853 17.1223 10.0001 17.1223ZM13.9679 15.9021C13.8956 15.4683 13.516 13.3894 12.585 10.8316C14.8175 10.4791 16.7698 11.0576 17.0138 11.1389C16.7065 13.1183 15.5677 14.8265 13.9679 15.9021Z" fill="#044407"/>
</svg>
