<svg width="20" height="20" viewBox="0 0 20 20" fill="none" xmlns="http://www.w3.org/2000/svg">
<path fill-rule="evenodd" clip-rule="evenodd" d="M9.99984 1.87219C5.39567 1.87219 1.6665 5.60136 1.6665 10.2055C1.6665 13.893 4.05192 17.0076 7.36442 18.1118C7.78109 18.1847 7.93734 17.9347 7.93734 17.7159C7.93734 17.518 7.92692 16.8618 7.92692 16.1639C5.83317 16.5493 5.2915 15.6534 5.12484 15.1847C5.03109 14.9451 4.62484 14.2055 4.27067 14.0076C3.979 13.8514 3.56234 13.4659 4.26025 13.4555C4.9165 13.4451 5.38525 14.0597 5.5415 14.3097C6.2915 15.5701 7.48942 15.2159 7.96859 14.9972C8.0415 14.4555 8.26025 14.0909 8.49984 13.8826C6.64567 13.6743 4.70817 12.9555 4.70817 9.76803C4.70817 8.86178 5.03109 8.11178 5.56234 7.52844C5.479 7.32011 5.18734 6.46594 5.64567 5.32011C5.64567 5.32011 6.34359 5.10136 7.93734 6.17428C8.604 5.98678 9.31234 5.89303 10.0207 5.89303C10.729 5.89303 11.4373 5.98678 12.104 6.17428C13.6978 5.09094 14.3957 5.32011 14.3957 5.32011C14.854 6.46594 14.5623 7.32011 14.479 7.52844C15.0103 8.11178 15.3332 8.85136 15.3332 9.76803C15.3332 12.9659 13.3853 13.6743 11.5311 13.8826C11.8332 14.143 12.0936 14.643 12.0936 15.4243C12.0936 16.5389 12.0832 17.4347 12.0832 17.7159C12.0832 17.9347 12.2394 18.1951 12.6561 18.1118C14.3104 17.5533 15.7479 16.4901 16.7663 15.0718C17.7847 13.6535 18.3327 11.9516 18.3332 10.2055C18.3332 5.60136 14.604 1.87219 9.99984 1.87219Z" fill="#044407"/>
</svg>
