<svg width="366" height="446" viewBox="0 0 366 446" fill="none" xmlns="http://www.w3.org/2000/svg">
<path d="M185.061 134.575C181.425 132.631 178.417 129.699 176.386 126.119C176.189 125.868 176.063 125.57 176.018 125.255C175.973 124.94 176.012 124.618 176.132 124.323C176.329 124.089 176.603 123.931 176.905 123.877C177.207 123.823 177.519 123.876 177.786 124.027C178.312 124.346 178.778 124.754 179.165 125.232C180.266 126.356 181.637 127.181 183.147 127.628C184.658 128.076 186.259 128.131 187.797 127.789C189.112 127.472 190.512 126.627 190.597 125.295C190.682 123.963 189.622 123.075 188.688 122.251C188.158 121.765 187.564 120.983 187.988 120.391C188.127 120.224 188.311 120.103 188.519 120.043C188.727 119.983 188.949 119.986 189.155 120.052C189.56 120.188 189.93 120.412 190.237 120.708L198.721 127.514C199.341 127.901 199.794 128.504 199.993 129.206C200.035 129.809 199.879 130.41 199.548 130.918L197.618 134.744C197.088 135.801 196.875 136.858 195.497 136.985C193.143 137.078 190.793 136.741 188.561 135.991C187.33 135.695 186.151 135.218 185.061 134.575Z" fill="#FFCEBF"/>
<path d="M258.829 424.552C258.11 424.889 257.445 425.321 256.854 425.834C256.565 426.089 256.34 426.401 256.193 426.747C256.046 427.093 255.982 427.466 256.004 427.838C256.118 428.329 256.379 428.779 256.755 429.134C257.132 429.489 257.608 429.735 258.128 429.842C259.171 430.053 260.25 430.053 261.293 429.842C263.629 429.482 265.966 429.001 268.281 428.5C271.488 427.838 280.047 427.939 281.428 426.055C281.879 424.912 282.067 423.692 281.979 422.475C281.891 421.259 281.529 420.074 280.918 419C277.007 420.154 272.883 420.522 268.812 420.082C267.288 420.484 265.803 421.007 264.373 421.646L258.829 424.552Z" fill="#3D3E5A"/>
<path d="M330.203 421.311C330.923 421.657 331.585 422.108 332.166 422.65C332.516 422.952 332.771 423.345 332.902 423.784C333.032 424.223 333.033 424.689 332.903 425.129C332.773 425.568 332.518 425.962 332.169 426.264C331.819 426.566 331.389 426.764 330.929 426.836C329.874 427.055 328.784 427.055 327.729 426.836C325.382 426.459 323.057 425.957 320.732 425.433C317.511 424.743 308.914 424.848 307.528 422.88C306.141 420.913 307.848 414.698 308.53 415.011C311.666 416.455 319.729 417.355 320.156 416.33C320.156 416.33 323.142 417.46 324.657 418.276L330.203 421.311Z" fill="#3D3E5A"/>
<path d="M287.367 86H308.633C306.45 92.441 309.769 102.21 313 112H283C286.406 102.446 289.179 93.1495 287.367 86Z" fill="#FFC4B3"/>
<path d="M313.183 82.9194C310.908 86.8107 307.663 90.0355 303.77 92.2744C301.821 93.3572 299.641 93.9482 297.416 93.9967C295.19 94.0453 292.987 93.5501 290.993 92.5533C289.344 91.4927 287.928 90.1047 286.829 88.4742C285.731 86.8436 284.974 85.0048 284.604 83.0696C283.887 79.1969 283.808 75.2315 284.37 71.3329C285.051 64.7672 286.329 57.9227 290.397 52.7302C292.352 50.2545 294.851 48.2687 297.696 46.9286C300.541 45.5885 303.655 44.9303 306.794 45.0058C311.884 45.1775 319.572 47.9668 320.658 53.7171C321.744 59.4674 320.062 67.1703 318.145 72.7919C316.897 76.3545 315.231 79.7544 313.183 82.9194Z" fill="#FFCEBF"/>
<path d="M260 324.617L269.456 419.567C270.903 419.95 272.405 420.08 273.897 419.952C276.51 419.78 279.089 419.262 281.568 418.412V328.19L294.317 266.552L307.64 415.952C311.667 417.216 315.951 417.4 320.07 416.486L322.046 326.628L325 237.797L266.842 236L260 324.617Z" fill="url(#paint0_linear_203_155)"/>
<path d="M324.733 218.891C324.208 220.531 323.961 222.252 324.005 223.978C324.053 224.846 324.267 225.695 324.635 226.477C325.002 227.259 325.516 227.959 326.147 228.537C326.783 229.094 327.525 229.507 328.326 229.75C329.127 229.993 329.969 230.06 330.797 229.947C331.641 229.856 332.458 229.586 333.196 229.154C333.934 228.722 334.576 228.137 335.082 227.436C336.163 225.618 336.567 223.458 336.217 221.358C335.875 219.3 335.789 217.206 335.96 215.125C336.656 212.269 338.145 209.683 340.245 207.682C341.231 206.603 342.388 205.259 341.874 203.938C341.359 202.617 339.11 202.286 337.589 202.154C335.446 201.978 334.76 201.626 333.304 203.343C330.806 206.246 328.715 209.493 327.09 212.989C326.15 214.888 325.362 216.861 324.733 218.891Z" fill="#FFCEBF"/>
<path d="M329.027 112C342.153 126.998 353.327 147.973 364.287 167.706C365.367 169.207 365.964 171.001 365.998 172.85C366.033 174.698 365.503 176.514 364.48 178.054L338.743 214.948C336.648 215.165 334.54 214.697 332.734 213.615C330.929 212.534 329.522 210.897 328.727 208.949L347.429 175.397C347.879 174.617 348.072 173.714 347.98 172.818C347.887 171.922 347.515 171.078 346.914 170.405L323 142.552L329.027 112Z" fill="#F2F2F2"/>
<path d="M194 138.001L229.099 156.481C230.897 157.444 232.897 157.964 234.933 157.998C236.97 158.032 238.985 157.579 240.814 156.675L241.543 156.265L262.89 142.258L266.645 139.773L266.924 137.784L271 108L268.275 110.378L233.24 140.637L198.377 127.28C197.069 128.022 195.983 129.103 195.228 130.41C194.474 131.717 194.08 133.203 194.086 134.715C194.086 135.645 194.021 136.747 194 138.001Z" fill="#F2F2F2"/>
<path d="M263.003 138.608C263.003 139.729 263.132 140.764 263.283 141.971C263.459 143.423 263.726 144.863 264.08 146.283C272.397 180.256 266.5 240 266.5 240L281.726 242.771C286.205 243.589 290.748 244 295.3 244C305.34 244 315.714 236.466 325 232.5C325 228.5 326.132 220.158 326.132 220.158C326.541 215.847 326.994 211.665 327.489 208.517C338.585 135.224 329.493 111.231 329.493 111.231C323.52 107.021 316.995 103.655 310.102 101.229C310.102 101.229 310.791 108.601 298.51 109.162C286.229 109.722 287.005 100 287.005 100C281.405 101.657 276.129 104.259 271.406 107.696C270.362 108.32 269.436 109.122 268.67 110.067C266.016 113.436 264.453 117.534 264.188 121.816C263.356 127.374 262.96 132.988 263.003 138.608Z" fill="#F2F2F2"/>
<path d="M267 234C275.786 236.058 284.125 237.164 293.152 237.461C303.971 237.591 314.87 235.739 325 232V237.5V238C298.47 250.546 266.5 240.5 266.5 240.5C266.5 240.5 266.5 233.5 267 234Z" fill="#593D5A"/>
<path d="M329.991 57.2648C330.248 49.0882 324.919 40.6969 317.044 38.6796C313.021 37.6494 308.784 38.2289 304.633 38.186C294.99 37.9962 285.729 34.3756 278.503 27.9706C278.018 27.5321 277.427 27.2277 276.789 27.0875C276.15 26.9473 275.487 26.976 274.863 27.1708C274.239 27.3656 273.676 27.7199 273.23 28.1988C272.784 28.6776 272.47 29.2647 272.319 29.9021L271.185 34.6664C270.058 38.7843 269.341 43.0041 269.045 47.2639C268.769 51.5393 269.775 55.7997 271.934 59.4966C273.032 61.3295 274.563 62.8636 276.392 63.9638C278.22 65.064 280.29 65.6967 282.42 65.8061C286.51 65.4853 290.39 63.8524 293.483 61.1492C296.532 58.3997 300.047 56.2193 303.862 54.7109C307.778 53.5735 312.679 54.5606 314.562 58.1446C316.167 61.0847 315.354 64.5829 314.861 67.9737C314.519 70.27 314.134 74.8412 316.36 76.5581C318.585 78.2749 321.346 74.5407 322.779 73.017C327.011 68.819 329.575 63.2197 329.991 57.2648Z" fill="#593D5A"/>
<path d="M298 194L289 187.191C290.425 161.908 292.691 137.177 295.798 113C297.238 113.41 298.762 113.41 300.202 113C301.784 139.914 303.879 165.19 307 187.191L298 194Z" fill="#46B737"/>
<path d="M295.907 113.739L295 111.615L298 108.308L301 111.615L300.093 113.739C298.729 114.088 297.271 114.088 295.907 113.739Z" fill="#0E7500"/>
<path d="M310.998 105.667C311.042 102.993 310.39 100.353 309.106 98L298 108.297L301.311 113L310.998 105.667Z" fill="#E6E6E6"/>
<path d="M286 105.667C286.187 102.346 286 100.563 287.287 98L298 108.297L294.948 113L286 105.667Z" fill="#E6E6E6"/>
<path opacity="0.05" d="M194 137.437L229.24 155.918C231.045 156.882 233.053 157.402 235.098 157.436C237.142 157.469 239.165 157.016 241.001 156.112L241.734 155.702L263.167 141.695C263.343 143.151 263.609 144.595 263.964 146.018C270.727 173.664 268.271 218.613 267 234.5C266.698 238.175 266.57 240.5 266.57 240.5L281.54 242.768C286.018 243.588 290.56 244 295.111 244C305.149 244 314.747 243.947 325 238.5C325 232 325.354 226.066 326 219.856C252.332 216.397 284.707 179.781 271.309 143.662C270.679 142.25 269.716 141.013 268.504 140.056C267.292 139.1 265.867 138.453 264.351 138.172C263.452 138.011 262.526 138.108 261.68 138.453C261.336 138.604 260.754 138.885 260.022 139.274C255.261 141.76 246.322 147.553 240.506 150.925C238.355 152.192 235.793 152.557 233.376 151.941C227.732 150.493 200.204 138.15 194.172 134C194.086 135.081 194.022 136.183 194 137.437Z" fill="black"/>
<path d="M298.487 246C298.686 246.001 298.882 245.964 299.066 245.89C299.249 245.816 299.414 245.708 299.553 245.571C299.828 245.304 299.988 244.947 300 244.571V237.469C299.995 237.088 299.837 236.723 299.56 236.45C299.282 236.177 298.906 236.016 298.508 236H288.513C288.115 236.011 287.735 236.163 287.448 236.429C287.304 236.556 287.189 236.71 287.112 236.883C287.035 237.055 286.997 237.241 287 237.429V244.551C286.996 244.74 287.032 244.927 287.105 245.103C287.178 245.278 287.288 245.437 287.427 245.571C287.708 245.832 288.08 245.984 288.471 246H298.487ZM288.492 237.367H298.487V244.469H288.492V237.367Z" fill="url(#paint1_linear_203_155)"/>
<g style="mix-blend-mode:soft-light" opacity="0.15">
<path d="M260 325.024L269.495 419.569C270.942 419.95 272.444 420.08 273.935 419.953C273.127 407.54 265.735 325.943 265.735 325.943C265.735 325.943 272.363 289.449 273.595 270.605C273.892 266.054 274.359 261.182 277.355 257.785C281.348 253.298 288.103 253.149 294.051 252.529C304.956 251.495 315.487 247.989 324.851 242.273L325 238L266.712 238.128L260 325.024Z" fill="black"/>
</g>
<g style="mix-blend-mode:soft-light" opacity="0.15">
<path d="M294 266C295.596 266.278 297.048 267.065 298.121 268.234C299.195 269.403 299.827 270.887 299.917 272.444L308 416L294 266Z" fill="black"/>
</g>
<path opacity="0.07" d="M294.5 434C262.744 434 237 430.866 237 427C237 423.134 262.744 420 294.5 420C326.256 420 352 423.134 352 427C352 430.866 326.256 434 294.5 434Z" fill="black"/>
<circle cx="307" cy="73" r="1" fill="#593D5A"/>
<circle cx="295" cy="69" r="1" fill="#593D5A"/>
<path d="M290.87 82.4424C290.87 82.4424 292.512 85.916 297.142 85.937C301.771 85.958 303.047 84.4273 303.047 84.4273" stroke="#593D5A" stroke-width="0.5" stroke-linecap="round"/>
<path opacity="0.07" d="M184 438C201.673 438 216 436.433 216 434.5C216 432.567 201.673 431 184 431C166.327 431 152 432.567 152 434.5C152 436.433 166.327 438 184 438Z" fill="black"/>
<path d="M193.407 270C193.991 270.926 194.501 271.899 194.931 272.911C195.308 273.79 195.639 274.69 195.922 275.607C197.359 280.317 197.359 285.371 195.922 290.081C195.004 293.093 193.511 295.884 191.53 298.288C190.431 299.622 189.199 300.832 187.855 301.9C187.097 302.485 186.309 303.03 185.496 303.531C184.578 304.103 183.614 304.595 182.616 305C182.02 304.075 181.506 303.096 181.079 302.075C179.999 299.574 179.325 296.906 179.085 294.178C178.823 291.032 179.168 287.864 180.099 284.856C181.029 281.849 182.527 279.062 184.506 276.658C185.607 275.321 186.843 274.11 188.194 273.046C188.946 272.453 189.729 271.904 190.54 271.402C191.457 270.855 192.416 270.386 193.407 270Z" fill="#66B88D"/>
<path d="M185 293.119C176.32 329.578 175.822 367.596 183.543 404.283L180.101 405C173.362 367.789 174.945 329.486 184.729 293L185 293.119Z" fill="#2E6957"/>
<path d="M206 403V409.883C206.01 413.683 205.053 417.426 203.218 420.766C201.383 424.106 198.728 426.938 195.497 429H170.517C167.285 426.943 164.628 424.117 162.791 420.781C160.953 417.445 159.993 413.707 160 409.909V403.026L206 403Z" fill="#F2F2F2"/>
<path d="M206 408V409.756C206.003 412.219 205.595 414.666 204.795 417H161.205C160.404 414.666 159.997 412.219 160 409.756V408H206Z" fill="#A88787"/>
<path d="M195 429H170V434H195V429Z" fill="#E6E6E6"/>
<path d="M209.453 302C209.712 303.063 209.88 304.146 209.956 305.237C210.015 306.2 210.015 307.165 209.956 308.128C209.891 309.863 209.642 311.587 209.215 313.27C208.443 316.29 207.086 319.126 205.22 321.616C203.354 324.106 201.017 326.199 198.344 327.776C196.854 328.653 195.273 329.364 193.63 329.894C192.714 330.191 191.781 330.431 190.836 330.614C189.768 330.84 188.683 330.969 187.592 331C187.333 329.937 187.165 328.854 187.089 327.763C187.01 326.797 186.984 325.828 187.009 324.859C187.076 323.128 187.324 321.409 187.751 319.73C188.499 316.708 189.851 313.871 191.723 311.391C193.59 308.897 195.936 306.804 198.622 305.237C200.11 304.37 201.686 303.664 203.322 303.132C204.238 302.83 205.171 302.585 206.116 302.4C207.215 302.168 208.331 302.034 209.453 302Z" fill="#319F7E"/>
<path d="M202 311.105C192.789 322.993 184.661 335.675 177.714 349L176 348.042C183.505 334.954 192.166 322.558 201.881 311L202 311.105Z" fill="#2E6957"/>
<path d="M201.661 337C202.159 337.976 202.567 338.993 202.879 340.041C203.177 340.959 203.412 341.895 203.583 342.843C203.906 344.541 204.042 346.269 203.989 347.996C203.887 351.106 203.16 354.165 201.85 356.999C200.551 359.837 198.682 362.389 196.356 364.502C195.06 365.674 193.64 366.707 192.12 367.583C191.271 368.073 190.394 368.517 189.494 368.911C188.48 369.358 187.43 369.723 186.355 370C185.86 369.021 185.449 368.004 185.123 366.959C184.833 366.034 184.594 365.094 184.406 364.144C184.087 362.445 183.955 360.718 184.013 358.991C184.121 355.887 184.855 352.835 186.172 350.011C187.489 347.187 189.363 344.647 191.687 342.538C192.98 341.364 194.396 340.327 195.909 339.443C196.76 338.956 197.636 338.512 198.535 338.115C199.543 337.659 200.589 337.286 201.661 337Z" fill="#66B88D"/>
<path d="M196 347.106C189.236 360.723 184.86 375.348 180.833 390L179 389.43C183.595 374.911 188.565 360.379 195.858 347L196 347.106Z" fill="#2E6957"/>
<path d="M156.339 333C155.841 333.976 155.433 334.993 155.121 336.041C154.823 336.959 154.588 337.895 154.417 338.843C154.094 340.541 153.958 342.269 154.011 343.996C154.111 347.106 154.838 350.166 156.15 352.999C157.449 355.837 159.318 358.389 161.644 360.502C162.94 361.674 164.36 362.707 165.88 363.583C166.729 364.073 167.606 364.517 168.506 364.911C169.518 365.364 170.568 365.729 171.645 366C172.142 365.022 172.554 364.005 172.877 362.959C173.165 362.038 173.405 361.102 173.594 360.157C173.913 358.454 174.045 356.722 173.987 354.991C173.894 351.883 173.162 348.825 171.835 346.001C170.52 343.169 168.643 340.622 166.313 338.511C165.023 337.338 163.607 336.305 162.091 335.43C161.244 334.935 160.368 334.491 159.465 334.102C158.454 333.656 157.409 333.288 156.339 333Z" fill="#66B88D"/>
<path d="M162.143 343C169.36 356.375 174.389 370.9 179 385.425L177.137 386C173.112 371.288 168.683 356.723 162 343.08L162.143 343Z" fill="#2E6957"/>
<path d="M162.521 311C162.197 311.681 161.93 312.391 161.725 313.122C161.539 313.761 161.385 314.411 161.263 315.068C161.061 316.253 160.975 317.458 161.006 318.662C161.068 320.832 161.539 322.967 162.392 324.944C163.244 326.921 164.461 328.699 165.973 330.176C166.813 330.993 167.733 331.713 168.719 332.324C169.27 332.666 169.84 332.972 170.426 333.243C171.085 333.553 171.768 333.806 172.466 334C172.79 333.319 173.056 332.609 173.262 331.878C173.459 331.238 173.614 330.583 173.724 329.919C173.936 328.734 174.027 327.529 173.993 326.324C173.919 324.158 173.44 322.029 172.583 320.058C171.727 318.087 170.509 316.313 169.001 314.838C168.16 314.018 167.239 313.294 166.255 312.676C165.704 312.334 165.134 312.028 164.548 311.757C163.895 311.441 163.216 311.188 162.521 311Z" fill="#319F7E"/>
<path d="M166.139 317C168.701 321.765 170.923 326.734 172.783 331.865C174.691 336.984 176.383 342.185 178 347.413L176.194 348C174.867 342.704 173.453 337.448 171.823 332.247C170.249 327.037 168.302 321.966 166 317.082L166.139 317Z" fill="#2E6957"/>
<path opacity="0.07" d="M69.5 446C107.884 446 139 442.642 139 438.5C139 434.358 107.884 431 69.5 431C31.1162 431 0 434.358 0 438.5C0 442.642 31.1162 446 69.5 446Z" fill="black"/>
<path d="M108 228H33.3924C30.8995 228.272 40.5314 81.2832 55.2626 77H83.4784C102.674 106.574 105.915 166.222 108 228Z" fill="#F2F2F2"/>
<path d="M84 76.5952C84 81.1018 77.8363 85 70.0458 85C62.2553 85 56 81.2821 56 76.7079C60.3535 72.8547 61.7742 65.4413 61.6596 56C63.5554 57.152 65.6668 57.9182 67.869 58.2533C71.3805 58.7012 74.9392 57.9022 77.905 56C78.4778 64.9005 79.7611 72.5618 84 76.5952Z" fill="#FFCEBF"/>
<g style="mix-blend-mode:soft-light" opacity="0.5">
<path d="M81 73.582C78.7579 69.2207 77.8609 63.01 77.4349 56C74.5327 57.9275 71.0504 58.7372 67.6143 58.2834C65.4594 57.9438 63.3933 57.1674 61.5382 56C61.6099 59.1835 61.4298 62.3676 61 65.5217C61.7198 66.8315 62.5687 68.0633 63.5336 69.1979C64.9338 70.9271 66.6755 72.3371 68.6455 73.3363C70.6155 74.3355 72.7699 74.9014 74.9686 74.9977C77.0628 75.0381 79.1345 74.5518 81 73.582Z" fill="black"/>
</g>
<path d="M52.1737 45.0564C52.4159 51.6691 54.7417 58.0332 58.8151 63.23C60.2258 64.9503 61.9806 66.3531 63.9654 67.3471C65.9501 68.3412 68.1207 68.9043 70.336 69C72.5408 68.9885 74.7096 68.4364 76.6542 67.3913C78.5988 66.3463 80.2606 64.8399 81.4953 63.0028C83.6005 59.4356 84.9753 55.4811 85.5389 51.3718C87.111 45.0362 87.4181 38.4499 86.4425 31.9942C85.4487 26.7477 82.6983 22.0017 78.649 18.5459C76.7964 16.9857 74.5987 15.8951 72.2403 15.3654C69.882 14.8358 67.4318 14.8825 65.0951 15.5017C60.916 16.7057 58.16 20.0452 55.3363 23.5209C52.8966 26.6104 52.6256 30.1997 52.2641 34.3341C51.9453 37.8999 51.915 41.4857 52.1737 45.0564Z" fill="#FFCEBF"/>
<path d="M52.275 43.4122C50.5324 42.4292 49.0574 41.0285 47.9806 39.3341C46.9038 37.6398 46.2584 35.7039 46.1017 33.6983C45.7026 29.4813 46.483 25.236 48.3547 21.4426C49.9159 17.5867 52.7377 14.3837 56.353 12.3642L51.1485 8.61934C50.8839 8.48131 50.6559 8.28161 50.4835 8.03684C50.311 7.79208 50.1991 7.50934 50.1571 7.2122C50.1571 6.34976 51.1034 5.98659 51.8244 5.8958C56.6565 5.26144 61.5678 5.68724 66.2213 7.14405C64.892 5.89578 63.6528 4.87449 62.301 3.62621C61.9431 3.36821 61.6518 3.02739 61.4519 2.63244C61.2519 2.23749 61.1491 1.79996 61.1519 1.35663C61.2021 1.027 61.3526 0.721263 61.5826 0.481426C61.8126 0.241589 62.1109 0.0795459 62.4362 0.0176452C63.0619 -0.0461195 63.693 0.0636554 64.2611 0.335282C68.2905 1.89028 71.9238 4.33296 74.8954 7.48454C76.9361 7.38831 78.9706 7.77798 80.8339 8.62183C82.6972 9.46569 84.3368 10.74 85.6198 12.3415C87.9581 15.6629 89.5005 19.485 90.1259 23.5078C91.5678 30.6343 91.4326 38.5779 88.1432 44.7966C87.8278 45.3867 87.3772 46.0221 86.7914 45.9994C86.2056 45.9767 85.6649 45.0235 85.4846 44.2065C84.8763 41.6645 84.7636 38.9865 84.1553 36.4445C83.9656 35.2046 83.5285 34.0163 82.8702 32.9513C82.2119 31.8864 81.3462 30.967 80.3252 30.2486C78.4902 29.4804 76.4545 29.3447 74.5349 29.8627L68.9924 30.7251C68.3384 30.8609 67.6638 30.8609 67.0098 30.7251C66.6608 30.6356 66.3408 30.4569 66.0803 30.2065C65.8198 29.956 65.6278 29.6422 65.5228 29.2953C65.32 28.5463 65.7255 27.5931 66.4014 27.5023C64.8535 27.1392 63.2404 27.1689 61.7068 27.5888C60.1732 28.0087 58.7671 28.8056 57.6147 29.9081C54.4379 33.2898 53.0861 38.5553 52.275 43.4122Z" fill="#593D5A"/>
<path d="M32.8469 424.994L18.5337 429.669C17.4101 429.966 16.3488 430.453 15.3984 431.109C14.9252 431.446 14.549 431.896 14.3062 432.416C14.0635 432.936 13.9623 433.509 14.0125 434.078C14.3306 435.961 16.648 436.759 18.5564 437.069C24.6682 437.881 30.8418 438.163 37.0046 437.911H46.9785C49.3714 438.123 51.7691 437.554 53.7943 436.293C54.6903 435.449 55.3474 434.394 55.7017 433.229C56.056 432.065 56.0954 430.831 55.8162 429.647C55.2312 427.274 54.2156 425.023 52.8174 423C46.2287 424.307 39.3447 422.867 32.8469 424.994Z" fill="#EE5F61"/>
<path d="M109.186 425.111L123.469 429.727C124.592 430.022 125.652 430.506 126.602 431.156C127.075 431.491 127.451 431.937 127.694 432.453C127.937 432.969 128.038 433.537 127.987 434.102C127.67 435.993 125.353 436.784 123.446 437.092C117.337 437.892 111.167 438.164 105.008 437.906L95.0397 437.796C92.6474 438.015 90.2483 437.45 88.2277 436.191C87.3244 435.358 86.661 434.312 86.3026 433.155C85.9443 431.999 85.9034 430.772 86.1841 429.595C86.7788 427.245 87.7932 425.013 89.1815 423C95.7892 424.451 102.669 423.044 109.186 425.111Z" fill="#EE5F61"/>
<path d="M34 228.09L36.6105 424.406C42.1708 426.57 48.3538 426.529 53.885 424.293L71.4319 259.274L89.5917 422.644C94.6311 426.325 100.805 426.686 107.752 424.902L109 228L34 228.09Z" fill="#0E7500"/>
<path d="M109 232.59C84.2368 237.137 58.8958 237.137 34.1326 232.59C33.9558 229.164 33.9558 225.731 34.1326 222.305C58.9033 226.585 84.1947 226.482 108.932 222L109 232.59Z" fill="#593D5A"/>
<path d="M80 235.866C74.3257 236.045 68.659 236.045 63 235.866L63.3211 226C68.7813 226.178 74.2186 226.178 79.6788 226C79.7935 229.296 79.8853 232.592 80 235.866Z" fill="url(#paint2_linear_203_155)"/>
<path d="M84.1603 113H54.8397C53.2714 113 52 114.284 52 115.868V159.132C52 160.716 53.2714 162 54.8397 162H84.1603C85.7286 162 87 160.716 87 159.132V115.868C87 114.284 85.7286 113 84.1603 113Z" fill="url(#paint3_linear_203_155)"/>
<path opacity="0.1" d="M85.517 113C85.7848 113.464 85.9228 113.997 85.9154 114.538V157.846C85.9154 158.651 85.6083 159.424 85.061 159.996C84.5137 160.568 83.7705 160.892 82.9935 160.898H54.483C53.9631 160.892 53.4531 160.75 53 160.485C53.2577 160.948 53.6289 161.332 54.076 161.598C54.523 161.864 55.03 162.003 55.5455 162H84.056C84.8368 162 85.5857 161.678 86.1378 161.106C86.6899 160.534 87 159.757 87 158.947V115.639C86.9982 115.103 86.8602 114.577 86.5998 114.114C86.3395 113.65 85.966 113.266 85.517 113Z" fill="black"/>
<path d="M78 126.018C78.0022 127.149 77.7642 128.267 77.3018 129.298C76.8395 130.329 76.1634 131.251 75.3183 132C75.1961 130.672 74.5829 129.437 73.599 128.538C72.6152 127.639 71.3315 127.141 69.9999 127.141C68.6683 127.141 67.3848 127.639 66.401 128.538C65.4171 129.437 64.8039 130.672 64.6817 132C63.684 131.111 62.9246 129.985 62.4725 128.727C62.0203 127.468 61.8899 126.116 62.0933 124.793C62.2966 123.471 62.8271 122.221 63.6365 121.157C64.4458 120.093 65.5082 119.249 66.7268 118.701C67.9454 118.154 69.2814 117.921 70.613 118.024C71.9445 118.126 73.2292 118.561 74.35 119.288C75.4708 120.016 76.392 121.013 77.0295 122.188C77.667 123.364 78.0007 124.68 78 126.018Z" fill="white"/>
<path d="M61.1412 144.974C61.6701 143.856 61.961 142.645 61.9963 141.414C62.0317 140.182 61.8107 138.957 61.3467 137.812C61.1412 137.409 60.7759 136.939 60.2965 137.006C59.817 137.074 59.5431 137.857 59.4974 138.461C59.2629 141.17 57.9607 143.683 55.8673 145.466C55.2281 146.003 54.2464 146.473 53.5843 145.936C53.3768 145.682 53.2638 145.366 53.2638 145.041C53.2638 144.715 53.3768 144.4 53.5843 144.146C53.9267 143.586 54.4518 143.183 54.8399 142.646C55.0681 142.407 55.2166 142.106 55.2655 141.782C55.3144 141.458 55.2615 141.127 55.1139 140.833C54.9093 140.583 54.6247 140.407 54.306 140.334C53.9872 140.261 53.6527 140.295 53.356 140.431C52.7677 140.718 52.2527 141.131 51.8491 141.639L45 149.114C46.3698 150.166 50.799 155 50.799 155C53.872 153.712 56.5933 151.734 58.744 149.226C59.7506 147.931 60.5582 146.498 61.1412 144.974Z" fill="#FFCEBF"/>
<path d="M80.0096 144.344C79.3905 143.036 79.0487 141.619 79.0048 140.178C78.961 138.737 79.2161 137.302 79.7546 135.96C80.0097 135.461 80.427 134.938 80.9835 135.006C81.54 135.074 81.8879 136.006 81.9342 136.71C82.2194 139.877 83.739 142.815 86.1774 144.912C86.9194 145.548 88.0788 146.071 88.8208 145.458C89.0823 145.175 89.2367 144.813 89.2578 144.433C89.2789 144.052 89.1655 143.676 88.9367 143.367C88.4802 142.754 87.9846 142.17 87.4528 141.618C87.1931 141.331 87.0242 140.976 86.9665 140.597C86.9089 140.218 86.9651 139.831 87.1281 139.482C87.3741 139.189 87.7119 138.983 88.0891 138.897C88.4663 138.811 88.8619 138.849 89.2149 139.005C89.9005 139.342 90.5021 139.823 90.9772 140.414L99 149.184C97.4001 150.411 92.2294 156 92.2294 156C88.6448 154.456 85.4711 152.123 82.9545 149.184C81.7514 147.71 80.7605 146.082 80.0096 144.344Z" fill="#FFCEBF"/>
<path d="M23.0893 152.237L48.0709 145.218C51.8328 147.475 52.9591 154.674 52.1481 155.938L20.2735 174.487C18.3083 175.714 16.0566 176.405 13.7423 176.491C11.428 176.576 9.13164 176.053 7.08163 174.974C5.03163 173.894 3.29934 172.296 2.05697 170.338C0.814601 168.38 0.105452 166.131 0 163.813C0 153.342 5.81175 135.74 9.57362 121.275C11.7945 112.598 15.8637 104.505 21.5019 97.5517C27.14 90.5985 34.2135 84.9501 42.2365 80.9943C43.5815 80.314 44.9743 79.7332 46.4038 79.2566L56 77C39.1279 158.961 49.5575 242.209 49.5575 242.209C41.9437 246.858 33.0459 247.805 23.3596 246.406L29.9148 133.574L23.0893 152.237Z" fill="#46B737"/>
<path d="M117.586 152.056L91.789 142.713C87.9967 144.97 87.6787 151.018 87.7923 153.455L119.948 174.307C128.622 179.655 138.546 173.359 139 163.204C138.751 151.42 137.29 139.692 134.64 128.203C132.563 118.71 128.486 109.762 122.678 101.948C116.869 94.1334 109.461 87.6304 100.94 82.8672C99.3045 81.9573 97.5864 81.2018 95.8085 80.6106L84 77C101.009 158.961 90.4946 242.209 90.4946 242.209C98.1701 246.858 107.14 247.805 116.905 246.406L110.297 133.574L117.586 152.056Z" fill="#46B737"/>
<circle cx="76.1299" cy="42" r="1" fill="#593D5A"/>
<circle cx="64.1299" cy="42" r="1" fill="#593D5A"/>
<path d="M64 56.875C64 56.875 65.6422 60.3486 70.2714 60.3696C74.9007 60.3906 76.1771 58.8599 76.1771 58.8599" stroke="#593D5A" stroke-width="0.5" stroke-linecap="round"/>
<defs>
<linearGradient id="paint0_linear_203_155" x1="322.833" y1="420" x2="212.601" y2="381.731" gradientUnits="userSpaceOnUse">
<stop stop-color="#008CE9"/>
<stop offset="1" stop-color="#00BB9A"/>
<stop offset="1" stop-color="#68E0CF"/>
</linearGradient>
<linearGradient id="paint1_linear_203_155" x1="300.021" y1="240.918" x2="287.022" y2="240.785" gradientUnits="userSpaceOnUse">
<stop stop-color="#E7F3FF"/>
<stop offset="1" stop-color="#C6CEFF"/>
</linearGradient>
<linearGradient id="paint2_linear_203_155" x1="63" y1="231.011" x2="80" y2="231.011" gradientUnits="userSpaceOnUse">
<stop stop-color="#E7F3FF"/>
<stop offset="1" stop-color="#C6CEFF"/>
</linearGradient>
<linearGradient id="paint3_linear_203_155" x1="53.1667" y1="162" x2="97.7217" y2="130.724" gradientUnits="userSpaceOnUse">
<stop stop-color="#008CE9"/>
<stop offset="1" stop-color="#00BB9A"/>
<stop offset="1" stop-color="#68E0CF"/>
</linearGradient>
</defs>
</svg>
