<svg width="20" height="20" viewBox="0 0 20 20" fill="none" xmlns="http://www.w3.org/2000/svg">
<path d="M18.1172 6.25781C17.9398 6.0602 17.7231 5.90183 17.4809 5.79286C17.2387 5.68389 16.9765 5.62671 16.7109 5.625H12.5V4.375C12.4979 3.54683 12.168 2.75317 11.5824 2.16757C10.9968 1.58197 10.2032 1.25206 9.375 1.25C9.25889 1.25094 9.14522 1.28342 9.04614 1.34397C8.94706 1.40452 8.86631 1.49085 8.8125 1.59375L5.85938 7.5H2.5C2.16848 7.5 1.85054 7.6317 1.61612 7.86612C1.3817 8.10054 1.25 8.41848 1.25 8.75V15.625C1.25 15.9565 1.3817 16.2745 1.61612 16.5089C1.85054 16.7433 2.16848 16.875 2.5 16.875H15.7734C16.2295 16.8731 16.6694 16.7058 17.0114 16.404C17.3533 16.1023 17.5742 15.6867 17.6328 15.2344L18.5703 7.73438C18.6015 7.47028 18.5773 7.20259 18.4993 6.94836C18.4213 6.69413 18.2911 6.45895 18.1172 6.25781ZM2.5 8.75H5.625V15.625H2.5V8.75Z" fill="#085F16"/>
</svg>
