<svg width="20" height="20" viewBox="0 0 20 20" fill="none" xmlns="http://www.w3.org/2000/svg">
<path fill-rule="evenodd" clip-rule="evenodd" d="M7.5 10C7.5 9.65482 7.77982 9.375 8.125 9.375H16.875C17.2202 9.375 17.5 9.65482 17.5 10C17.5 10.3452 17.2202 10.625 16.875 10.625H8.125C7.77982 10.625 7.5 10.3452 7.5 10Z" fill="#085F16"/>
<path fill-rule="evenodd" clip-rule="evenodd" d="M7.5 5C7.5 4.65482 7.77982 4.375 8.125 4.375H16.875C17.2202 4.375 17.5 4.65482 17.5 5C17.5 5.34518 17.2202 5.625 16.875 5.625H8.125C7.77982 5.625 7.5 5.34518 7.5 5Z" fill="#085F16"/>
<path fill-rule="evenodd" clip-rule="evenodd" d="M7.5 15C7.5 14.6548 7.77982 14.375 8.125 14.375H16.875C17.2202 14.375 17.5 14.6548 17.5 15C17.5 15.3452 17.2202 15.625 16.875 15.625H8.125C7.77982 15.625 7.5 15.3452 7.5 15Z" fill="#085F16"/>
<path fill-rule="evenodd" clip-rule="evenodd" d="M4.70347 3.53084C4.88774 3.64472 4.99989 3.84589 4.99989 4.0625V8.4375C4.99989 8.78268 4.72007 9.0625 4.37489 9.0625C4.02971 9.0625 3.74989 8.78268 3.74989 8.4375V5.07377L3.4044 5.24652C3.09566 5.40089 2.72024 5.27575 2.56588 4.96701C2.41151 4.65827 2.53665 4.28285 2.84538 4.12848L4.09538 3.50348C4.28913 3.40661 4.51921 3.41696 4.70347 3.53084Z" fill="#085F16"/>
<path fill-rule="evenodd" clip-rule="evenodd" d="M4.25972 11.8636C4.19398 11.8587 4.12796 11.8678 4.06596 11.8901C4.00397 11.9125 3.94739 11.9477 3.89991 11.9935C3.85244 12.0392 3.81515 12.0944 3.79047 12.1555C3.66121 12.4756 3.29696 12.6303 2.9769 12.501C2.65684 12.3717 2.50216 12.0075 2.63142 11.6874C2.72192 11.4633 2.85866 11.2609 3.03273 11.0932C3.20679 10.9255 3.41425 10.7964 3.64158 10.7144C3.86891 10.6323 4.11098 10.5992 4.352 10.617C4.59303 10.6348 4.82757 10.7033 5.04034 10.8179C5.2531 10.9326 5.4393 11.0908 5.58677 11.2823C5.73425 11.4737 5.83969 11.6941 5.8962 11.9291C5.95272 12.1641 5.95905 12.4084 5.91477 12.646C5.87049 12.8835 5.7766 13.1091 5.63923 13.308C5.63473 13.3145 5.6301 13.3209 5.62535 13.3273L4.37354 14.9996H5.3125C5.65768 14.9996 5.9375 15.2794 5.9375 15.6246C5.9375 15.9698 5.65768 16.2496 5.3125 16.2496H3.125C2.88838 16.2496 2.67204 16.116 2.56612 15.9044C2.4602 15.6928 2.48285 15.4395 2.62465 15.2501L4.61605 12.5897C4.65065 12.5374 4.67442 12.4787 4.68592 12.4169C4.698 12.3521 4.69628 12.2855 4.68086 12.2214C4.66545 12.1574 4.63669 12.0972 4.59647 12.045C4.55625 11.9928 4.50547 11.9497 4.44744 11.9184C4.38942 11.8871 4.32545 11.8685 4.25972 11.8636Z" fill="#085F16"/>
</svg>
