<svg width="172" height="382" viewBox="0 0 172 382" fill="none" xmlns="http://www.w3.org/2000/svg">
<path d="M169.943 97.3784C171.732 93.6915 172.373 89.6002 171.791 85.5822C171.699 84.954 171.496 84.2385 170.867 84.0291C170.554 83.9652 170.227 84.0072 169.943 84.1475C169.659 84.2878 169.437 84.5176 169.314 84.7969C169.09 85.3556 168.966 85.9451 168.944 86.5419C168.755 88.0899 168.144 89.5653 167.173 90.825C166.201 92.0846 164.9 93.0858 163.398 93.7313C162.798 94.0781 162.099 94.2408 161.397 94.197C160.695 94.1533 160.024 93.9052 159.478 93.487C159.155 92.9642 158.956 92.3812 158.895 91.7785C158.834 91.1758 158.913 90.5679 159.127 89.997C159.256 89.2815 159.238 88.2521 158.498 88.1125C158.28 88.0607 158.05 88.075 157.841 88.1533C157.632 88.2316 157.455 88.3699 157.333 88.5487C157.095 88.9054 156.931 89.3025 156.853 89.7178L154.209 100.188C153.93 100.861 153.93 101.609 154.209 102.282C154.576 102.77 155.092 103.141 155.688 103.346L159.718 105.178C160.828 105.684 161.734 106.417 162.862 105.702C164.863 104.351 166.591 102.673 167.964 100.746C168.797 99.7224 169.464 98.5873 169.943 97.3784Z" fill="#C29687"/>
<path d="M115.797 121.343C117.706 114.438 116.931 107.352 116.265 100.211C115.382 90.678 110.141 87.9956 110.141 87.9956C105.913 84.9102 101.209 82.5467 96.2177 81H75.9362C69.8773 83.0584 64.1355 85.9623 58.8789 89.6268C58.8789 89.6268 50.3592 109.979 58.5727 173.303C59.6534 181.712 60.1577 207.139 60.1577 207.139C72.0313 212.411 85.1496 214.177 97.9828 212.232L111.672 210.419C111.672 210.419 107.691 150.34 115.797 121.343Z" fill="#FBC36C"/>
<path d="M76 81.0569L78.9893 65L93.4199 65.3747L96 81.1462C88.8826 87.783 82.2278 87.4797 76 81.0569Z" fill="#C29687"/>
<g style="mix-blend-mode:soft-light" opacity="0.5">
<path d="M93.9686 65.3708L78.7147 65L78 68.5306C78.6742 70.6741 79.8976 72.6299 81.5632 74.2271C83.2289 75.8242 85.286 77.0141 87.5549 77.6926C90.386 78.287 93.3456 78.0148 96 76.9159L93.9686 65.3708Z" fill="black"/>
</g>
<path d="M64.4962 366.974C64.844 367.525 54.6828 371.328 50.4352 371.548C49.5439 371.685 48.7145 372.088 48.0551 372.706C47.6948 372.971 47.4093 373.325 47.2264 373.734C47.0434 374.143 46.9694 374.592 47.0115 375.039C47.2678 376.527 49.0437 377.133 50.5267 377.372C54.8278 377.953 59.1735 378.132 63.5075 377.905L71.1055 377.758C72.9483 377.905 74.7884 377.441 76.3418 376.435C77.0258 375.766 77.524 374.929 77.7873 374.008C78.0506 373.086 78.0698 372.112 77.8431 371.181C77.3661 369.331 76.5732 367.578 75.4996 366C71.3069 368.241 64.4962 366.974 64.4962 366.974Z" fill="#EE5F61"/>
<path d="M100.922 366.7C100.922 366.7 100.922 371.498 88.0957 373.425C87.2782 373.714 86.5215 374.147 85.8627 374.703C85.534 374.982 85.2854 375.341 85.1413 375.743C84.9971 376.145 84.9626 376.577 85.0409 376.997C85.4161 378.38 87.1846 378.748 88.6138 378.923C93.1896 379.124 97.7745 378.931 102.316 378.345L109.712 377.592C111.523 377.583 113.276 376.965 114.678 375.841C115.29 375.154 115.708 374.323 115.893 373.43C116.078 372.537 116.022 371.611 115.732 370.745C115.121 369.026 114.214 367.421 113.052 366C109.082 366.93 104.976 367.167 100.922 366.7Z" fill="#EE5F61"/>
<path d="M105.624 270.466L112.701 365.864C111.456 366.687 110.025 367.19 108.538 367.327C105.79 367.793 102.967 367.5 100.374 366.478L85.7671 274.132C85.0792 256.273 82.2917 236.427 83.0519 227.778C82.5089 236.933 79.2688 255.117 76.1193 272.398L75.2867 366.569C73.5297 367.478 71.5851 367.967 69.6062 367.998C67.6273 368.03 65.6681 367.602 63.8831 366.749L54 273.301L55.8101 207.463V207.264L115 206L105.624 270.466Z" fill="url(#paint0_linear_178_256)"/>
<path opacity="0.05" d="M105.654 270.713L112.709 366.531C111.467 367.357 110.041 367.862 108.559 368C105.509 351.967 106.754 335.063 102.803 319.03C95.8747 290.389 94.4357 260.683 98.563 231.501C98.7923 229.877 98.6907 228.223 98.2646 226.641C97.8384 225.058 97.0965 223.578 96.084 222.292C95.0715 221.006 93.8094 219.941 92.3746 219.161C90.9397 218.38 89.362 217.901 87.7373 217.753C76.5533 216.622 65.7356 213.117 56 207.469V207.27L115 206L105.654 270.713Z" fill="black"/>
<path d="M112.605 200.947L56.1343 201.439L56.1833 207.056L112.654 206.563L112.605 200.947Z" fill="#593D5A"/>
<path d="M91.468 200.649L80.1987 200.762L80.2549 206.378L91.5242 206.266L91.468 200.649Z" fill="url(#paint1_linear_178_256)"/>
<path d="M58.1679 87.856C54.0256 122.008 52.146 169.309 52 210.954C57.8759 214.318 66.9635 214.391 77 213.554C74.427 169.163 73.8978 117.171 76.5073 81C70.0455 82.2225 63.8423 84.5416 58.1679 87.856Z" fill="#46B737"/>
<path d="M2.06468 97.0991C0.281185 93.2148 -0.366001 88.9059 0.197844 84.6699C0.28674 84.0129 0.5001 83.2494 1.12238 83.0364C1.43329 82.9623 1.7605 83.0022 2.04441 83.1488C2.32833 83.2955 2.55004 83.5391 2.66917 83.8353C2.8924 84.4021 3.01862 85.0023 3.04255 85.6109C3.24596 87.2368 3.86244 88.7838 4.83337 90.1046C5.8043 91.4255 7.09738 92.4763 8.5897 93.1572C9.19283 93.5172 9.89292 93.6815 10.5935 93.6275C11.294 93.5734 11.9606 93.3037 12.5011 92.8554C12.8239 92.2982 13.0199 91.6769 13.0753 91.0356C13.1306 90.3942 13.0438 89.7486 12.8212 89.1444C12.679 88.3987 12.6967 87.3688 13.4257 87.138C13.6451 87.0908 13.8735 87.1094 14.0823 87.1915C14.2911 87.2737 14.4709 87.4157 14.5991 87.5997C14.8389 87.9722 15.0021 88.3887 15.0792 88.8248L17.7994 99.8157C18.0669 100.525 18.0669 101.308 17.7994 102.018C17.4408 102.536 16.9321 102.932 16.3415 103.154L12.3234 105.125C11.2211 105.658 10.3321 106.439 9.21198 105.693C7.20586 104.288 5.47107 102.531 4.09152 100.508C3.25405 99.476 2.5713 98.3276 2.06468 97.0991Z" fill="#C29687"/>
<path d="M57.8079 88C57.8079 88 40.9324 98.0705 36.8496 124.876L18.704 98.1433C16.3422 98.4287 14.0711 99.2286 12.0495 100.487C10.0278 101.745 8.30451 103.431 7 105.428C7 105.428 28.0308 146.183 37.6843 147.913C43.8176 149.006 54.7776 139.827 56.7192 119.923C57.9029 109.326 58.267 98.6533 57.8079 88Z" fill="#46B737"/>
<path d="M114.333 88.1932C117.805 122.342 118.383 169.57 117.805 211.24C111.929 214.473 102.907 214.4 93 213.365C96.3627 169.08 98.2791 117.093 96.3627 81C102.72 82.3415 108.799 84.775 114.333 88.1932Z" fill="#46B737"/>
<path d="M114.392 88C114.392 88 131.128 98.3296 134.73 125.078L153.412 98.819C155.77 99.144 158.028 99.9771 160.029 101.26C162.03 102.544 163.727 104.246 165 106.249C165 106.249 143.17 146.408 133.438 147.93C127.271 148.909 116.465 139.558 114.883 119.714C113.903 109.171 113.738 98.5682 114.392 88Z" fill="#46B737"/>
<path d="M69.3911 60.832C70.4305 66.1609 73.9612 71.3629 79.1586 72.6861C81.9998 73.3229 84.9697 72.9849 87.5999 71.7254C90.1995 70.4566 92.5355 68.6971 94.482 66.5415C100.671 59.8611 104.079 51.027 103.999 41.8728C103.999 40.0602 103.586 36.1632 103.586 36.1632C103.586 36.1632 99.6973 36 98.389 36C90.7183 36 71.1295 36.9426 71.1295 36.9426C71.1295 36.9426 70.2334 44.5009 69.7853 47.4916C68.8935 51.8821 68.7601 56.3955 69.3911 60.832Z" fill="#C29687"/>
<path d="M65.0105 40.7389C62.4783 38.6122 60.7585 35.6685 60.1445 32.41C59.8701 30.7954 59.9877 29.138 60.4873 27.5788C60.9869 26.0196 61.8538 24.6046 63.0142 23.4543C64.2126 22.3289 65.7293 21.6055 67.3546 21.3841C68.9799 21.1627 70.6335 21.4542 72.0867 22.2184C70.6315 20.7663 69.5395 18.9882 68.9003 17.03C68.2611 15.0718 68.0928 12.9892 68.4094 10.9531C68.7259 8.91688 69.5182 6.98502 70.7213 5.31603C71.9245 3.64704 73.5041 2.28844 75.3308 1.35153C77.2444 0.354206 79.3904 -0.105686 81.5425 0.0204121C83.6945 0.146511 85.7728 0.85386 87.5582 2.06793C89.4223 3.49047 90.788 5.47195 91.4576 7.72584C92.1273 9.97973 92.0663 12.3892 91.2834 14.606C92.228 11.9554 93.9879 9.67599 96.3082 8.09798C98.6284 6.51996 101.388 5.72544 104.188 5.82941C105.623 5.90923 107.026 6.27862 108.316 6.91565C109.605 7.55267 110.753 8.44427 111.692 9.53711C112.808 11.0627 113.576 12.8162 113.943 14.6733C114.31 16.5305 114.265 18.446 113.813 20.284C112.879 23.9342 111.407 27.4236 109.446 30.6368C110.968 31.3067 112.321 32.3085 113.41 33.5694C114.498 34.8303 115.293 36.3187 115.738 37.9268C116.136 39.5385 116.08 41.2296 115.576 42.8111C115.072 44.3925 114.141 45.8022 112.886 46.8826C109.892 49.2469 105.757 49.1215 101.889 48.8707C99.0084 48.8053 96.147 48.3843 93.3688 47.617C92.8876 47.4558 92.4063 47.2767 91.9251 47.0618C86.8966 44.8045 81.3337 44.028 75.8833 44.8228H75.509C71.7659 45.181 67.7376 43.0316 65.0105 40.7389Z" fill="#593D5A"/>
<path opacity="0.07" d="M82 382C113.48 382 139 379.538 139 376.5C139 373.462 113.48 371 82 371C50.5198 371 25 373.462 25 376.5C25 379.538 50.5198 382 82 382Z" fill="black"/>
<circle cx="89" cy="52" r="1" fill="#593D5A"/>
<circle cx="77" cy="51" r="1" fill="#593D5A"/>
<path d="M75 63.875C75 63.875 76.6422 67.3486 81.2714 67.3696C85.9007 67.3906 87.1771 65.8599 87.1771 65.8599" stroke="#593D5A" stroke-width="0.5" stroke-linecap="round"/>
<defs>
<linearGradient id="paint0_linear_178_256" x1="56.0333" y1="368" x2="157.989" y2="330.271" gradientUnits="userSpaceOnUse">
<stop stop-color="#008CE9"/>
<stop offset="1" stop-color="#00BB9A"/>
<stop offset="1" stop-color="#68E0CF"/>
</linearGradient>
<linearGradient id="paint1_linear_178_256" x1="80.2266" y1="203.552" x2="91.4959" y2="203.439" gradientUnits="userSpaceOnUse">
<stop stop-color="#E7F3FF"/>
<stop offset="1" stop-color="#C6CEFF"/>
</linearGradient>
</defs>
</svg>
