<svg width="215" height="440" viewBox="0 0 215 440" fill="none" xmlns="http://www.w3.org/2000/svg">
<path d="M206.395 108.52C206.656 105.461 202.777 103.98 201.187 106.57C201.176 106.592 201.164 106.613 201.15 106.634C199.597 109.199 199.023 112.251 198.062 115.113C197.101 117.975 195.538 120.879 192.872 122.108C190.932 123.006 188.714 122.868 186.604 122.628C184.838 122.426 182.888 122.055 181.822 120.579C180.836 119.208 180.935 117.303 181.336 115.632C181.737 113.961 182.409 112.354 182.426 110.644C182.426 109.467 181.951 108.096 180.85 107.817C179.641 107.513 178.584 108.693 177.939 109.799C174.882 115.007 174.063 121.32 174.202 127.415C174.263 130.241 174.542 133.135 175.646 135.718C176.343 137.304 177.339 138.729 178.576 139.908C179.812 141.086 181.264 141.995 182.844 142.579C185.667 143.6 190.025 143.773 192.573 141.823C194.951 139.993 196.866 136.325 198.392 133.736C201.96 127.656 204.433 120.952 205.691 113.951C206.004 112.149 206.238 110.339 206.395 108.52Z" fill="#FFC7B5"/>
<path opacity="0.05" d="M201.723 105.879C202.115 106.182 202.424 106.584 202.62 107.046C202.815 107.508 202.891 108.015 202.839 108.517C202.681 110.336 202.439 112.144 202.114 113.94C200.842 120.945 198.342 127.654 194.737 133.738C193.196 136.333 191.267 140.002 188.857 141.83C187.786 142.585 186.552 143.057 185.263 143.205C187.755 143.531 190.556 143.237 192.413 141.83C194.816 140.002 196.752 136.333 198.294 133.738C201.9 127.655 204.399 120.946 205.671 113.94C205.996 112.149 206.237 110.341 206.395 108.517C206.625 105.777 203.536 104.317 201.723 105.879Z" fill="black"/>
<path d="M121.957 146.941C123.464 162.619 128.85 177.684 137.634 190.794C140.101 194.439 143.131 198.148 147.423 199.177C150.482 199.909 153.766 199.121 156.504 197.591C159.242 196.061 161.529 193.83 163.661 191.526C177.224 176.848 185.037 158.324 193.318 140.176C186.482 139.871 179.832 138.117 174.451 134.146C167.499 146.552 161.783 158.583 154.834 170.99C149.506 151.111 141.299 123.617 132.151 111.253C130.209 111.666 130.209 111.666 128.349 112.692C126.488 113.718 125.276 115.665 124.677 117.696C124.078 119.727 124.029 121.873 123.972 123.999C123.796 131.534 121.241 139.405 121.957 146.941Z" fill="#338528"/>
<path d="M199.497 73.1743C199.966 73.1135 200.443 73.1823 200.876 73.373L213.188 78.8317C214.071 79.2221 214.676 80.0726 214.907 81.2473C215.127 82.528 214.954 83.8447 214.41 85.0259L196.254 126.722C195.386 128.716 193.803 130.037 192.283 130.208C191.815 130.271 191.338 130.202 190.907 130.009L178.588 124.558C177.712 124.167 177.107 123.31 176.872 122.142C176.655 120.859 176.83 119.54 177.373 118.357L195.529 76.6601C196.394 74.6732 197.98 73.3451 199.497 73.1743Z" fill="#F2F2F2"/>
<path d="M212.992 84.7398L205.638 101.628L202.907 107.861L200.127 114.257L194.822 126.457C194.79 126.538 194.75 126.615 194.703 126.687C194.002 128.155 192.777 129.127 191.625 129.263C191.242 129.316 190.853 129.261 190.501 129.103L178.196 123.651C177.495 123.344 176.991 122.644 176.795 121.696C176.622 120.663 176.765 119.603 177.205 118.653L185.399 99.8296L190.812 87.382L193.593 80.9927L195.343 76.9492C195.614 76.3279 195.995 75.76 196.467 75.2726C197.006 74.6663 197.738 74.2637 198.54 74.1327C198.919 74.0909 199.303 74.1461 199.654 74.2931L212.011 79.7483C212.386 79.9345 212.71 80.209 212.954 80.548C213.198 80.8869 213.355 81.2801 213.412 81.6933C213.582 82.7278 213.436 83.7892 212.992 84.7398Z" fill="url(#paint0_linear_246_1956)"/>
<path d="M126.233 433.677C127.506 433.815 128.82 433.866 129.975 434.41C131.129 434.954 132.086 436.16 131.868 437.41C131.701 438.36 130.89 439.1 129.985 439.476C129.056 439.776 128.08 439.911 127.103 439.875C117.166 440.177 107.22 439.931 97.3104 439.138C90.3753 438.394 95.3928 423.963 95.3928 423.963C99.1655 426.752 103.85 427.751 109.291 427.207C109.301 427.204 115.505 433.677 126.233 433.677Z" fill="#5E63A5"/>
<path d="M85.808 433.653C87.1145 433.791 88.4636 433.842 89.649 434.386C90.8344 434.93 91.8169 436.135 91.5926 437.385C91.4218 438.336 90.5888 439.076 89.6633 439.451C88.7127 439.758 87.7139 439.902 86.7122 439.875C76.5108 440.177 66.3 439.931 56.1268 439.138C49.0072 438.394 54.1582 423.963 54.1582 423.963C58.0312 426.752 62.8405 427.751 68.4257 427.207C68.4257 427.179 74.7941 433.653 85.808 433.653Z" fill="#5E63A5"/>
<path d="M133.654 261.069L135.927 315.262C135.793 320.395 135.821 332.045 135.857 339.619C135.881 344.296 135.119 348.944 133.602 353.369L109.822 427.462C104.424 428.323 98.0602 428.365 95.5526 424.818L107.595 340.837L97.1436 287.078L68.4469 427.462C62.631 429.055 56.6676 426.635 54.3707 424.163L58.2655 261.069L90.6885 248.565L128.081 253.509L133.654 261.069Z" fill="url(#paint1_linear_246_1956)"/>
<path opacity="0.1" d="M96.6589 286.392L68.2873 427.462C62.5373 429.055 56.6415 426.635 54.3706 424.163L58.2248 261.069L90.2804 248.565L96.6589 286.392Z" fill="black"/>
<path d="M57.8195 261.764C82.2419 267.795 104.991 268.368 133.175 262.49C138.136 234.074 128.838 198.535 136.796 128.553C137.792 119.789 133.266 111.277 126.971 105.054L109.949 88.2007C101.994 92.5598 93.046 93.7848 81.9296 88.2007L66.4024 105.302C60.8707 111.395 57.8086 119.313 57.809 127.523C56.2896 178.701 55.5597 226.532 57.8195 261.764Z" fill="#46B737"/>
<path d="M82.5629 87.5945C92.0161 92.4118 101.078 92.4118 109.748 87.5945L104.704 64.146H87.6042L82.5629 87.5945Z" fill="#FFC7B5"/>
<path d="M114.636 51.6079C115.694 56.0318 116.246 60.6508 115.315 65.0986C114.383 69.5464 111.818 73.8333 107.729 76.1993C101.419 79.8561 92.8554 78.0996 87.0654 73.7374C81.2755 69.3752 77.7177 62.9312 74.6836 56.5385C72.3611 51.6456 70.2192 46.5849 69.6269 41.2502C69.0345 35.9156 70.1145 30.2146 73.6831 26.051C77.9633 21.0485 85.5123 18.9804 92.1041 20.5726C105.421 23.7877 111.937 40.3121 114.636 51.6079Z" fill="#FFC7B5"/>
<path opacity="0.1" d="M108.741 79.8956C108.327 80.2665 107.89 80.6061 107.435 80.9124C101.248 85.1215 92.8524 83.0997 87.1724 78.0788C86.2576 77.2609 85.3906 76.379 84.5767 75.4382L85.3983 71.1621C85.9608 71.7718 86.5518 72.348 87.1688 72.8883C92.8347 77.9132 101.245 79.9311 107.431 75.722C107.583 75.6195 107.736 75.5092 107.877 75.3949L108.741 79.8956Z" fill="black"/>
<path opacity="0.05" d="M108.741 79.8956C108.327 80.2665 107.89 80.6061 107.435 80.9124C101.248 85.1215 92.8524 83.0997 87.1724 78.0788C86.2576 77.2609 85.3906 76.379 84.5767 75.4382L85.3983 71.1621C85.9608 71.7718 86.5518 72.348 87.1688 72.8883C92.8347 77.9132 101.245 79.9311 107.431 75.722C107.583 75.6195 107.736 75.5092 107.877 75.3949L108.741 79.8956Z" fill="black"/>
<path d="M71.5929 134.954L106.931 137.02C107.483 137.052 107.904 137.524 107.872 138.073L104.324 198.221C104.292 198.77 103.818 199.19 103.266 199.158L67.928 197.092C67.3759 197.06 66.9545 196.588 66.987 196.039L70.5344 135.891C70.5668 135.342 71.0407 134.922 71.5929 134.954Z" fill="url(#paint2_linear_246_1956)"/>
<path d="M102.607 162.69L72.6597 160.94L73.0123 154.962L102.96 156.712L102.607 162.69Z" fill="white"/>
<path opacity="0.1" d="M69.389 197.51L102.54 199.451C103.673 199.521 104.714 197.524 104.714 197.524L70.8741 137.312L67.4636 195.339C67.431 195.881 67.6154 196.414 67.9764 196.821C68.3373 197.228 68.8453 197.476 69.389 197.51Z" fill="black"/>
<path d="M64.7278 108.246C56.2832 118.958 50.1352 131.628 46.2022 144.575C41.9455 158.649 41.1479 173.5 43.8736 187.929C44.6297 191.896 45.8685 196.15 49.1981 198.537C51.5373 200.206 54.6077 200.683 57.4901 200.362C60.3724 200.04 63.1127 198.979 65.7607 197.836C74.0456 194.218 92.6316 178.901 92.6316 178.901L86.6859 169.17L61.6929 175.898C61.6929 175.898 59.4246 152.098 59.7334 140.906C60.0245 130.222 60.2268 117.994 64.7278 108.246Z" fill="#338528"/>
<g opacity="0.1">
<path d="M65.3603 192.173C62.7481 193.34 60.0448 194.4 57.2014 194.724C54.358 195.048 51.329 194.567 49.0214 192.88C45.7228 190.475 44.5007 186.184 43.7689 182.179C42.9297 177.649 42.4265 173.063 42.2631 168.459C42.0389 175.205 42.5437 181.955 43.7689 188.593C44.5147 192.594 45.7368 196.885 49.0214 199.294C51.329 200.977 54.358 201.459 57.2014 201.134C60.0448 200.81 62.7481 199.74 65.3603 198.586C73.5333 194.94 91.8682 179.484 91.8682 179.484L89.3049 175.193C83.9753 179.554 71.6564 189.363 65.3603 192.173Z" fill="black"/>
</g>
<path d="M106.425 172.848C108.595 171.011 110.638 168.884 111.819 166.215C113 163.546 113.188 160.247 111.764 157.72C110.34 155.192 107.065 153.821 104.594 155.174C102.883 156.105 101.856 158.025 100.545 159.513C99.2347 161 96.9793 162.084 95.4119 160.887C93.8444 159.691 97.6638 150.341 92.8758 150.341C91.3768 150.341 89.1865 157.887 88.5773 159.345L85.7812 166.037C84.6244 168.804 83.4437 171.699 83.5806 174.724C83.621 175.846 83.897 176.945 84.3885 177.939C84.88 178.933 85.5745 179.798 86.4212 180.47C88.5397 182.048 90.3535 181.332 92.6705 180.568C97.667 178.925 102.331 176.307 106.425 172.848Z" fill="#FFC7B5"/>
<path opacity="0.1" d="M111.757 157.883C111.101 156.765 110.133 155.883 108.984 155.353C109.057 155.461 109.13 155.57 109.196 155.685C110.644 158.215 110.447 161.468 109.251 164.124C108.055 166.78 105.986 168.894 103.789 170.719C99.641 174.152 94.9175 176.751 89.8588 178.384C87.9005 179.013 86.2992 179.594 84.5766 178.868C84.9929 179.49 85.5074 180.034 86.0982 180.476C88.2436 182.045 90.0806 181.333 92.4271 180.574C97.4784 178.939 102.194 176.339 106.333 172.905C108.53 171.08 110.599 168.966 111.795 166.314C112.991 163.661 113.206 160.383 111.757 157.883Z" fill="black"/>
<path d="M48.1446 0.121135C43.056 0.596787 38.1173 2.11073 33.6305 4.57041C29.1436 7.0301 25.2029 10.3839 22.0492 14.4267C18.8955 18.4695 16.5951 23.1164 15.2885 28.0834C13.982 33.0503 13.6968 38.233 14.4504 43.3145C15.6835 51.6396 19.633 59.2907 21.9152 67.3923C25.2685 79.2809 24.9703 91.9106 21.0596 103.626C17.1489 115.341 9.80828 125.595 6.10352e-05 133.043C11.7479 133.742 24.4336 133.469 33.993 126.569C42.962 120.095 47.4499 108.819 48.5476 97.7768C49.6452 86.7349 47.8181 75.6371 46.5711 64.6022C45.324 53.5672 44.6988 42.1656 48.0751 31.5986C49.4667 27.2029 51.6458 23.0998 54.5049 19.4916C57.3671 15.9053 61.4521 13.8275 64.3561 10.4123C72.6442 0.582088 54.0915 -0.434104 48.1446 0.121135Z" fill="#7D3762"/>
<path d="M63.8676 5.49804L56.1477 11.6938C55.483 12.2282 54.7894 12.8023 54.504 13.6038C54.1427 14.622 54.5546 15.7702 55.2662 16.6043C55.9779 17.4383 56.9496 17.9582 57.9033 18.4782C59.6265 19.4205 61.5556 20.3954 63.4702 19.9224C64.5539 19.6624 65.5112 18.9512 66.3602 18.1965C68.7408 16.0771 72.7976 12.0332 72.4761 8.51651C72.0246 3.59887 67.1188 2.88758 63.8676 5.49804Z" fill="#EE5F61"/>
<path d="M117.267 41.4498C119.75 38.6217 120.722 34.7331 120.815 30.9658C121.141 18.9856 112.691 7.51607 101.438 3.60956C90.1855 -0.296942 76.9603 3.15249 68.4286 11.5083C59.8969 19.8641 56.0904 32.5763 57.7861 44.4458C58.4956 49.4949 60.2694 54.5941 63.8949 58.1578C67.5205 61.7215 73.2993 63.3641 77.8437 61.1073C81.863 59.1148 84.1263 54.5584 84.5839 50.0734C85.0664 45.4813 83.6651 41.2534 83.1401 36.797C88.66 34.1653 96.2198 31.68 100.75 37.0755C103.059 39.8287 103.893 43.3674 107.696 44.5565C111.087 45.6063 115.029 44.0958 117.267 41.4498Z" fill="#7D3762"/>
<ellipse rx="0.999842" ry="0.999182" transform="matrix(0.915735 -0.401783 0.402441 0.915446 105.318 48.5589)" fill="#593D5A"/>
<ellipse rx="0.999842" ry="0.999182" transform="matrix(0.915735 -0.401783 0.402441 0.915446 90.2746 52.4646)" fill="#593D5A"/>
<path d="M97 67.1826C97 67.1826 99.9003 69.7002 104.147 67.8598C108.394 66.0194 108.947 64.1064 108.947 64.1064" stroke="#593D5A" stroke-width="0.5" stroke-linecap="round"/>
<defs>
<linearGradient id="paint0_linear_246_1956" x1="176.742" y1="101.691" x2="213.479" y2="101.691" gradientUnits="userSpaceOnUse">
<stop stop-color="#6DA9EF"/>
<stop offset="1" stop-color="#6E87EE"/>
</linearGradient>
<linearGradient id="paint1_linear_246_1956" x1="133.208" y1="427.973" x2="4.01341" y2="370.255" gradientUnits="userSpaceOnUse">
<stop stop-color="#008CE9"/>
<stop offset="1" stop-color="#00BB9A"/>
<stop offset="1" stop-color="#68E0CF"/>
</linearGradient>
<linearGradient id="paint2_linear_246_1956" x1="87.4168" y1="127.986" x2="87.4168" y2="204.687" gradientUnits="userSpaceOnUse">
<stop stop-color="#6DA9EF"/>
<stop offset="1" stop-color="#6E87EE"/>
</linearGradient>
</defs>
</svg>
