<svg width="20" height="20" viewBox="0 0 20 20" fill="none" xmlns="http://www.w3.org/2000/svg">
<path fill-rule="evenodd" clip-rule="evenodd" d="M11.5648 2.77114C12.1593 2.23252 12.9381 1.94312 13.74 1.96286C14.542 1.98261 15.3056 2.30998 15.8728 2.87721C16.44 3.44443 16.7674 4.20806 16.7872 5.01C16.8069 5.81193 16.5175 6.59075 15.9789 7.1852C15.973 7.19172 15.9669 7.19812 15.9607 7.20438L8.20293 15.0716C8.19471 15.0799 8.18625 15.088 8.17757 15.0959C7.82089 15.4191 7.3536 15.5927 6.87244 15.5809C6.39128 15.569 5.9331 15.3726 5.59277 15.0322C5.25243 14.6919 5.05601 14.2337 5.04416 13.7526C5.03231 13.2714 5.20595 12.8041 5.52913 12.4474C5.53485 12.4411 5.5407 12.4349 5.54667 12.4289L12.0545 5.81168C12.2965 5.56557 12.6922 5.56227 12.9383 5.80431C13.1844 6.04634 13.1877 6.44206 12.9457 6.68816L6.4484 13.2947C6.34519 13.4125 6.28992 13.5649 6.29378 13.7218C6.29773 13.8822 6.36321 14.0349 6.47665 14.1484C6.5901 14.2618 6.74282 14.3273 6.90321 14.3312C7.05874 14.3351 7.20992 14.2807 7.32735 14.1792L15.0608 6.33678C15.3787 5.98128 15.5493 5.51784 15.5375 5.04076C15.5257 4.5596 15.3293 4.10142 14.9889 3.76109C14.6486 3.42075 14.1904 3.22433 13.7092 3.21248C13.2335 3.20077 12.7714 3.37037 12.4163 3.68655L4.66861 11.5434C4.08341 12.1286 3.75464 12.9223 3.75464 13.7499C3.75464 14.5775 4.0834 15.3712 4.6686 15.9564C5.2538 16.5416 6.0475 16.8704 6.87509 16.8704C7.70269 16.8704 8.49639 16.5416 9.08159 15.9564L15.4962 9.55744C15.7406 9.31366 16.1363 9.31414 16.3801 9.55852C16.6239 9.80289 16.6234 10.1986 16.379 10.4424L9.96547 16.8403C9.14585 17.6599 8.03421 18.1204 6.87509 18.1204C5.71598 18.1204 4.60434 17.6599 3.78472 16.8403C2.9651 16.0207 2.50464 14.909 2.50464 13.7499C2.50464 12.5916 2.96449 11.4806 3.7831 10.6612L11.5394 2.79546C11.5477 2.78711 11.5561 2.77901 11.5648 2.77114Z" fill="#085F16"/>
</svg>
