<svg width="20" height="20" viewBox="0 0 20 20" fill="none" xmlns="http://www.w3.org/2000/svg">
<path d="M14.9999 5.96797C14.9499 5.95964 14.8916 5.95964 14.8416 5.96797C13.6916 5.92631 12.7749 4.98464 12.7749 3.81797C12.7749 2.6263 13.7332 1.66797 14.9249 1.66797C16.1166 1.66797 17.0749 2.63464 17.0749 3.81797C17.0666 4.98464 16.1499 5.92631 14.9999 5.96797Z" stroke="#085F16" stroke-linecap="round" stroke-linejoin="round"/>
<path d="M14.1415 12.0348C15.2831 12.2264 16.5415 12.0264 17.4248 11.4348C18.5998 10.6514 18.5998 9.3681 17.4248 8.58477C16.5331 7.9931 15.2581 7.7931 14.1165 7.9931" stroke="#085F16" stroke-linecap="round" stroke-linejoin="round"/>
<path d="M4.9749 5.96797C5.0249 5.95964 5.08324 5.95964 5.13324 5.96797C6.28324 5.92631 7.1999 4.98464 7.1999 3.81797C7.1999 2.6263 6.24157 1.66797 5.0499 1.66797C3.85824 1.66797 2.8999 2.63464 2.8999 3.81797C2.90824 4.98464 3.8249 5.92631 4.9749 5.96797Z" stroke="#085F16" stroke-linecap="round" stroke-linejoin="round"/>
<path d="M5.83328 12.0348C4.69162 12.2264 3.43328 12.0264 2.54995 11.4348C1.37495 10.6514 1.37495 9.3681 2.54995 8.58477C3.44162 7.9931 4.71662 7.7931 5.85828 7.9931" stroke="#085F16" stroke-linecap="round" stroke-linejoin="round"/>
<path d="M10.0001 12.1906C9.95014 12.1823 9.89181 12.1823 9.84181 12.1906C8.69181 12.149 7.77515 11.2073 7.77515 10.0406C7.77515 8.84896 8.73348 7.89062 9.92514 7.89062C11.1168 7.89062 12.0751 8.85729 12.0751 10.0406C12.0668 11.2073 11.1501 12.1573 10.0001 12.1906Z" stroke="#085F16" stroke-linecap="round" stroke-linejoin="round"/>
<path d="M7.5751 14.8148C6.4001 15.5982 6.4001 16.8815 7.5751 17.6648C8.90843 18.5565 11.0918 18.5565 12.4251 17.6648C13.6001 16.8815 13.6001 15.5982 12.4251 14.8148C11.1001 13.9315 8.90843 13.9315 7.5751 14.8148Z" stroke="#085F16" stroke-linecap="round" stroke-linejoin="round"/>
</svg>
