<svg width="25" height="26" viewBox="0 0 25 26" fill="none" xmlns="http://www.w3.org/2000/svg">
<path d="M23.3594 10.0117C23.2616 9.70408 23.0732 9.43317 22.8187 9.23451C22.5643 9.03585 22.2558 8.9187 21.9336 8.89844L16.1328 8.49805L13.9844 3.07812C13.8671 2.77969 13.6629 2.52334 13.3982 2.34227C13.1336 2.1612 12.8207 2.06373 12.5 2.0625V2.0625C12.1794 2.06373 11.8664 2.1612 11.6018 2.34227C11.3372 2.52334 11.133 2.77969 11.0156 3.07812L8.82814 8.52734L3.06643 8.89844C2.74465 8.92002 2.43676 9.03765 2.18257 9.23613C1.92839 9.4346 1.7396 9.70478 1.64064 10.0117C1.53902 10.3234 1.53309 10.6583 1.6236 10.9734C1.71411 11.2884 1.89692 11.5691 2.14846 11.7793L6.58205 15.5293L5.26369 20.7148C5.17248 21.0656 5.18889 21.4358 5.3108 21.7771C5.43271 22.1185 5.65448 22.4153 5.94729 22.6289C6.2315 22.8329 6.57011 22.9474 6.91978 22.9579C7.26946 22.9683 7.6143 22.8742 7.91018 22.6875L12.4903 19.7871H12.5098L17.4414 22.9023C17.6944 23.0667 17.9893 23.1549 18.291 23.1562C18.5374 23.1543 18.78 23.0959 19.0002 22.9856C19.2205 22.8752 19.4125 22.7158 19.5615 22.5196C19.7105 22.3235 19.8125 22.0958 19.8598 21.854C19.907 21.6122 19.8982 21.3628 19.834 21.125L18.4375 15.4512L22.8516 11.7793C23.1031 11.5691 23.2859 11.2884 23.3764 10.9734C23.467 10.6583 23.461 10.3234 23.3594 10.0117Z" fill="#F2F2F2"/>
</svg>
