<svg width="25" height="25" viewBox="0 0 25 25" fill="none" xmlns="http://www.w3.org/2000/svg">
<path d="M23.3591 9.51172C23.2614 9.20408 23.0729 8.93317 22.8185 8.73451C22.5641 8.53585 22.2555 8.4187 21.9334 8.39844L16.1326 7.99805L13.9841 2.57812C13.8668 2.27969 13.6626 2.02334 13.398 1.84227C13.1333 1.6612 12.8204 1.56373 12.4998 1.5625C12.1791 1.56373 11.8662 1.6612 11.6016 1.84227C11.3369 2.02334 11.1327 2.27969 11.0154 2.57812L8.8279 8.02734L3.06618 8.39844C2.74441 8.42002 2.43651 8.53765 2.18233 8.73613C1.92814 8.9346 1.73936 9.20478 1.6404 9.51172C1.53878 9.82336 1.53284 10.1583 1.62335 10.4734C1.71387 10.7884 1.89668 11.0691 2.14821 11.2793L6.58181 15.0293L5.26345 20.2148C5.17223 20.5656 5.18865 20.9358 5.31056 21.2771C5.43247 21.6185 5.65424 21.9153 5.94704 22.1289C6.23125 22.3329 6.56986 22.4474 6.91954 22.4579C7.26922 22.4683 7.61406 22.3742 7.90993 22.1875L12.49 19.2871H12.5095L17.4412 22.4023C17.6942 22.5667 17.9891 22.6549 18.2908 22.6562C18.5371 22.6543 18.7797 22.5959 19 22.4856C19.2202 22.3752 19.4122 22.2158 19.5612 22.0196C19.7103 21.8235 19.8123 21.5958 19.8595 21.354C19.9068 21.1122 19.898 20.8628 19.8338 20.625L18.4373 14.9512L22.8513 11.2793C23.1029 11.0691 23.2857 10.7884 23.3762 10.4734C23.4667 10.1583 23.4608 9.82336 23.3591 9.51172Z" fill="#E5C100"/>
</svg>
