<svg width="20" height="20" viewBox="0 0 20 20" fill="none" xmlns="http://www.w3.org/2000/svg">
<path fill-rule="evenodd" clip-rule="evenodd" d="M18.3334 10.0001C18.3334 14.6025 14.6025 18.3334 10.0001 18.3334C5.39771 18.3334 1.66675 14.6025 1.66675 10.0001C1.66675 5.39771 5.39771 1.66675 10.0001 1.66675C14.6025 1.66675 18.3334 5.39771 18.3334 10.0001ZM10.2987 7.81879C9.48815 8.15592 7.86822 8.8537 5.43888 9.91212C5.04439 10.069 4.83775 10.2225 4.81893 10.3725C4.78714 10.6261 5.10473 10.726 5.5372 10.862C5.59603 10.8805 5.65698 10.8996 5.71947 10.92C6.14495 11.0583 6.71731 11.2201 7.01485 11.2265C7.28475 11.2323 7.58599 11.1211 7.91857 10.8927C10.1884 9.36051 11.3601 8.58607 11.4336 8.56938C11.4855 8.5576 11.5574 8.54279 11.6062 8.5861C11.6549 8.62941 11.6501 8.71142 11.6449 8.73343C11.6135 8.86755 10.3668 10.0265 9.72168 10.6263C9.52056 10.8133 9.37789 10.9459 9.34873 10.9762C9.2834 11.0441 9.21682 11.1083 9.15283 11.17C8.75754 11.551 8.46112 11.8368 9.16924 12.3034C9.50953 12.5277 9.78183 12.7131 10.0535 12.8981C10.3502 13.1001 10.6461 13.3017 11.029 13.5526C11.1265 13.6166 11.2197 13.683 11.3104 13.7477C11.6557 13.9938 11.9659 14.215 12.3491 14.1797C12.5718 14.1592 12.8018 13.9498 12.9186 13.3253C13.1947 11.8495 13.7373 8.6518 13.8627 7.3341C13.8737 7.21865 13.8599 7.0709 13.8488 7.00604C13.8377 6.94119 13.8145 6.84878 13.7302 6.78037C13.6303 6.69935 13.4762 6.68227 13.4073 6.68348C13.0938 6.689 12.6129 6.85621 10.2987 7.81879Z" fill="#044407"/>
</svg>
