<svg width="20" height="20" viewBox="0 0 20 20" fill="none" xmlns="http://www.w3.org/2000/svg">
<path fill-rule="evenodd" clip-rule="evenodd" d="M2.5 16.875C2.5 16.5298 2.77982 16.25 3.125 16.25H16.875C17.2202 16.25 17.5 16.5298 17.5 16.875C17.5 17.2202 17.2202 17.5 16.875 17.5H3.125C2.77982 17.5 2.5 17.2202 2.5 16.875Z" fill="#085F16"/>
<path fill-rule="evenodd" clip-rule="evenodd" d="M5 3.75C5.34518 3.75 5.625 4.02982 5.625 4.375V9.375C5.625 10.5353 6.08594 11.6481 6.90641 12.4686C7.72688 13.2891 8.83968 13.75 10 13.75C11.1603 13.75 12.2731 13.2891 13.0936 12.4686C13.9141 11.6481 14.375 10.5353 14.375 9.375V4.375C14.375 4.02982 14.6548 3.75 15 3.75C15.3452 3.75 15.625 4.02982 15.625 4.375V9.375C15.625 10.8668 15.0324 12.2976 13.9775 13.3525C12.9226 14.4074 11.4918 15 10 15C8.50816 15 7.07742 14.4074 6.02252 13.3525C4.96763 12.2976 4.375 10.8668 4.375 9.375V4.375C4.375 4.02982 4.65482 3.75 5 3.75Z" fill="#085F16"/>
</svg>
