<svg width="20" height="20" viewBox="0 0 20 20" fill="none" xmlns="http://www.w3.org/2000/svg">
<path fill-rule="evenodd" clip-rule="evenodd" d="M2.5 10C2.5 9.65482 2.77982 9.375 3.125 9.375H16.875C17.2202 9.375 17.5 9.65482 17.5 10C17.5 10.3452 17.2202 10.625 16.875 10.625H3.125C2.77982 10.625 2.5 10.3452 2.5 10Z" fill="#085F16"/>
<path fill-rule="evenodd" clip-rule="evenodd" d="M9.99989 4.375C7.77182 4.375 6.49208 5.63372 6.49208 6.875V6.88229L6.49204 6.88229C6.49034 7.02727 6.51199 7.17157 6.55614 7.30967C6.66126 7.63845 6.47995 7.99019 6.15116 8.09531C5.82238 8.20043 5.47063 8.01912 5.36552 7.69033C5.28091 7.4257 5.23923 7.14922 5.24208 6.87142C5.24441 4.6615 7.40123 3.125 9.99989 3.125C12.0239 3.125 13.7339 4.03002 14.4298 5.47026C14.58 5.78105 14.4498 6.15475 14.139 6.30493C13.8282 6.45511 13.4545 6.32491 13.3043 6.01412C12.8753 5.12623 11.6946 4.375 9.99989 4.375Z" fill="#085F16"/>
<path fill-rule="evenodd" clip-rule="evenodd" d="M10.2125 9.82516C10.3091 9.49379 10.6561 9.30351 10.9875 9.40016C11.9289 9.67474 12.9137 10.0154 13.6661 10.5662C14.4536 11.1427 15 11.9622 15 13.1252C15 14.2429 14.3642 15.1953 13.4559 15.8438C12.5464 16.4931 11.3223 16.8752 10 16.8752C8.6777 16.8752 7.45359 16.4931 6.54407 15.8438C5.63578 15.1953 5 14.2429 5 13.1252C5 12.78 5.27982 12.5002 5.625 12.5002C5.97018 12.5002 6.25 12.78 6.25 13.1252C6.25 13.734 6.59469 14.3441 7.27038 14.8265C7.94485 15.308 8.90824 15.6252 10 15.6252C11.0918 15.6252 12.0552 15.308 12.7296 14.8265C13.4053 14.3441 13.75 13.734 13.75 13.1252C13.75 12.4287 13.4527 11.9592 12.9277 11.5748C12.3675 11.1647 11.5711 10.8725 10.6375 10.6002C10.3061 10.5035 10.1158 10.1565 10.2125 9.82516Z" fill="#085F16"/>
</svg>
