<svg width="20" height="20" viewBox="0 0 20 20" fill="none" xmlns="http://www.w3.org/2000/svg">
<path fill-rule="evenodd" clip-rule="evenodd" d="M4.375 3.75C4.375 3.40482 4.65482 3.125 5 3.125H10.9375C11.8492 3.125 12.7235 3.48716 13.3682 4.13182C14.0128 4.77648 14.375 5.65082 14.375 6.5625C14.375 7.47418 14.0128 8.34852 13.3682 8.99318C13.3525 9.0089 13.3366 9.02445 13.3206 9.03984C13.7672 9.22642 14.1778 9.49946 14.5267 9.84835C15.2299 10.5516 15.625 11.5054 15.625 12.5C15.625 13.4946 15.2299 14.4484 14.5267 15.1517C13.8234 15.8549 12.8696 16.25 11.875 16.25H5C4.65482 16.25 4.375 15.9702 4.375 15.625V3.75ZM5.625 10V15H11.875C12.538 15 13.1739 14.7366 13.6428 14.2678C14.1116 13.7989 14.375 13.163 14.375 12.5C14.375 11.837 14.1116 11.2011 13.6428 10.7322C13.1739 10.2634 12.538 10 11.875 10H5.625ZM10.9375 8.75H5.625V4.375H10.9375C11.5177 4.375 12.0741 4.60547 12.4843 5.0157C12.8945 5.42594 13.125 5.98234 13.125 6.5625C13.125 7.14266 12.8945 7.69906 12.4843 8.1093C12.0741 8.51953 11.5177 8.75 10.9375 8.75Z" fill="#085F16"/>
</svg>
