<svg width="20" height="20" viewBox="0 0 20 20" fill="none" xmlns="http://www.w3.org/2000/svg">
<path fill-rule="evenodd" clip-rule="evenodd" d="M12.0726 3.78224C12.4 3.8914 12.577 4.24535 12.4679 4.57281L8.71785 15.8228C8.6087 16.1503 8.25475 16.3273 7.92728 16.2181C7.59982 16.1089 7.42284 15.755 7.532 15.4275L11.282 4.17753C11.3912 3.85006 11.7451 3.67309 12.0726 3.78224Z" fill="#085F16"/>
<path fill-rule="evenodd" clip-rule="evenodd" d="M4.375 15.625C4.375 15.2798 4.65482 15 5 15H11.25C11.5952 15 11.875 15.2798 11.875 15.625C11.875 15.9702 11.5952 16.25 11.25 16.25H5C4.65482 16.25 4.375 15.9702 4.375 15.625Z" fill="#085F16"/>
<path fill-rule="evenodd" clip-rule="evenodd" d="M8.125 4.375C8.125 4.02982 8.40482 3.75 8.75 3.75H15C15.3452 3.75 15.625 4.02982 15.625 4.375C15.625 4.72018 15.3452 5 15 5H8.75C8.40482 5 8.125 4.72018 8.125 4.375Z" fill="#085F16"/>
</svg>
