<svg width="20" height="20" viewBox="0 0 20 20" fill="none" xmlns="http://www.w3.org/2000/svg">
<path d="M16.6271 6.59994C16.6373 6.74687 16.6373 6.8938 16.6373 7.04209C16.6373 11.5603 13.1977 16.7712 6.90813 16.7712V16.7685C5.05019 16.7712 3.23084 16.2391 1.66675 15.2356C1.93691 15.2681 2.20842 15.2843 2.48062 15.285C4.02033 15.2864 5.51603 14.7698 6.72735 13.8184C5.26415 13.7907 3.98106 12.8367 3.53282 11.4439C4.04538 11.5427 4.57351 11.5224 5.07659 11.385C3.48136 11.0627 2.33369 9.66109 2.33369 8.03335C2.33369 8.01846 2.33369 8.00424 2.33369 7.99002C2.80901 8.25476 3.3412 8.40169 3.88559 8.41794C2.38311 7.41381 1.91998 5.41503 2.82729 3.8523C4.56336 5.98853 7.1248 7.28719 9.87448 7.42464C9.5989 6.23702 9.97537 4.99252 10.8637 4.15767C12.2409 2.86306 14.4069 2.92942 15.7016 4.30595C16.4673 4.15496 17.2013 3.87396 17.873 3.47583C17.6177 4.26736 17.0835 4.93971 16.3698 5.36696C17.0476 5.28706 17.7098 5.1056 18.3334 4.82867C17.8743 5.51659 17.2961 6.11582 16.6271 6.59994Z" fill="#044407"/>
</svg>
