<svg width="238" height="347" viewBox="0 0 238 347" fill="none" xmlns="http://www.w3.org/2000/svg">
<path opacity="0.07" d="M199 303C220.539 303 238 300.985 238 298.5C238 296.015 220.539 294 199 294C177.461 294 160 296.015 160 298.5C160 300.985 177.461 303 199 303Z" fill="black"/>
<path d="M199.228 179.924C202.242 182.847 204.393 186.504 205.455 190.512C206.486 194.536 206.998 198.668 206.98 202.815C207.296 220.024 203.945 237.111 197.138 253C183.744 237.653 176.588 218.07 177.018 197.944C177.003 193.903 177.741 189.893 179.196 186.107C179.932 184.231 181.044 182.516 182.469 181.062C183.893 179.608 185.6 178.444 187.492 177.637C189.48 176.964 191.617 176.821 193.681 177.223C195.745 177.625 197.66 178.558 199.228 179.924Z" fill="#2E6957"/>
<path d="M225.772 188.944C227.563 192.69 228.295 196.85 227.892 200.978C227.489 205.094 226.57 209.144 225.157 213.034C219.711 229.307 210.926 244.278 199.358 257C192.214 238.275 192.214 217.596 199.358 198.871C200.657 195.033 202.647 191.462 205.231 188.332C206.533 186.797 208.13 185.535 209.927 184.619C211.725 183.704 213.689 183.153 215.703 183C217.764 183 219.786 183.552 221.558 184.598C223.33 185.644 224.786 187.145 225.772 188.944Z" fill="#319F7E"/>
<path d="M173.466 203.602C176.14 204.852 178.43 206.803 180.095 209.251C181.73 211.707 183.062 214.353 184.065 217.13C188.463 228.551 190.454 240.765 189.913 253C177.527 245.94 168.139 234.563 163.521 221.017C162.494 218.305 161.978 215.424 162.001 212.522C162.008 211.085 162.301 209.665 162.863 208.345C163.425 207.024 164.245 205.83 165.273 204.834C166.404 203.909 167.761 203.307 169.202 203.09C170.643 202.873 172.116 203.05 173.466 203.602Z" fill="#66B88D"/>
<path d="M236.481 208.682C237.234 211.582 237.166 214.629 236.285 217.494C235.41 220.338 234.173 223.061 232.602 225.601C226.365 236.32 217.927 245.65 207.822 253C205.403 238.773 208.364 224.168 216.147 211.933C217.624 209.431 219.551 207.214 221.836 205.388C222.987 204.484 224.31 203.813 225.729 203.417C227.147 203.02 228.632 202.905 230.096 203.078C231.577 203.359 232.952 204.028 234.077 205.015C235.201 206.002 236.032 207.269 236.481 208.682Z" fill="#66B88D"/>
<path d="M221.981 243.935L213.388 295.746C213.296 296.373 212.983 296.946 212.505 297.361C212.026 297.775 211.416 298.002 210.785 298H185.197C184.559 298 183.944 297.767 183.465 297.344C182.986 296.922 182.676 296.338 182.594 295.703L174.022 243.956C173.974 243.585 174.005 243.208 174.114 242.851C174.223 242.493 174.407 242.163 174.654 241.882C174.9 241.602 175.204 241.378 175.544 241.226C175.884 241.074 176.253 240.997 176.625 241H219.377C219.748 240.997 220.114 241.074 220.453 241.225C220.791 241.376 221.094 241.598 221.34 241.875C221.586 242.153 221.771 242.481 221.881 242.836C221.992 243.191 222.026 243.566 221.981 243.935Z" fill="#F0CE71"/>
<g style="mix-blend-mode:soft-light" opacity="0.2">
<path d="M221.98 243.935L213.112 295.746C213.018 296.373 212.694 296.946 212.201 297.361C211.707 297.775 211.077 298.002 210.426 298H203.502C207.281 279.475 208.504 260.652 203 241H219.294C219.676 240.997 220.054 241.074 220.403 241.225C220.752 241.376 221.065 241.598 221.319 241.875C221.573 242.153 221.764 242.481 221.878 242.836C221.992 243.191 222.027 243.566 221.98 243.935Z" fill="black"/>
</g>
<path opacity="0.07" d="M73 347C41.5198 347 16 344.538 16 341.5C16 338.462 41.5198 336 73 336C104.48 336 130 338.462 130 341.5C130 344.538 104.48 347 73 347Z" fill="black"/>
<path d="M67.1481 312.021C69.3769 316.677 71.263 321.586 73.5093 326.242C73.9001 326.964 74.1833 327.744 74.3492 328.554C74.4675 328.99 74.468 329.452 74.3506 329.888C74.2333 330.324 74.0026 330.719 73.6837 331.027C73.3649 331.336 72.9703 331.548 72.5428 331.639C72.1153 331.73 71.6715 331.698 71.2598 331.545C70.3691 331.292 69.5344 330.86 68.8029 330.274C64.7478 327.449 60.9259 324.279 57.3766 320.797C56.699 320.173 56.1043 319.458 55.6081 318.671C55.1083 317.647 54.8468 316.516 54.8444 315.369C54.842 314.222 55.0988 313.092 55.5942 312.069C56.6674 309.901 58.0557 307.919 59.7103 306.191C61.8608 308.576 62.6736 310.669 67.1481 312.021Z" fill="#242647"/>
<path d="M105.56 177.289L107.955 234.022C108.28 241.745 106.838 249.441 103.74 256.52L66.3306 313C63.2493 311.918 60.6516 309.774 59 306.951L88.8089 244.892L81.4963 177L105.56 177.289Z" fill="#A37E72"/>
<path d="M91 177.612L74.5552 328.513C71.7168 329.615 68.3463 328.694 64.8516 327.267L64 174L91 177.612Z" fill="#C29687"/>
<path d="M74.481 328.187C78.8218 331.027 82.986 334.263 87.3445 337.102C88.0618 337.521 88.7103 338.043 89.2679 338.651C89.5906 338.967 89.8188 339.362 89.9277 339.795C90.0367 340.228 90.0222 340.681 89.8859 341.106C89.7497 341.532 89.4968 341.913 89.1546 342.208C88.8124 342.503 88.3939 342.701 87.9445 342.782C87.0096 343.005 86.0404 343.058 85.0859 342.936C80.0004 342.574 74.9543 341.803 69.9991 340.63C69.0662 340.448 68.1635 340.142 67.317 339.718C66.3508 339.1 65.5482 338.269 64.9747 337.29C64.4012 336.312 64.0732 335.216 64.0173 334.09C63.9256 331.701 64.1992 329.311 64.829 327C67.9522 327.929 69.7344 329.289 74.481 328.187Z" fill="#2E315B"/>
<path d="M108.886 153C115.375 173.496 117.508 197.194 118 223.583C96.237 228.139 73.763 228.139 52 223.583C54.6976 195.011 57.4681 167.877 62.0795 153.109C79.1035 155.983 95.1433 156.546 108.886 153Z" fill="#FBC36C"/>
<path d="M103.627 41.0641C103.284 38.9688 102.67 36.9097 102.418 34.7964C102.039 31.5813 102.418 28.3482 102.418 25.115C102.238 20.7701 101.016 16.5322 98.8541 12.7596C96.6924 8.98704 93.655 5.79052 89.9985 3.44016C86.4848 1.27345 82.4557 0.0872078 78.3292 0.00462726C74.2027 -0.0779533 70.1293 0.946122 66.5319 2.97052C62.4951 5.22369 59.4679 8.93101 58.0659 13.3383C56.1344 20.0033 58.6797 27.5173 57.1092 34.2907C56.0622 38.8243 53.2282 42.7981 53.0116 47.4762C52.6866 55.1166 59.3114 61.4926 60.232 69.1511C60.5028 71.4631 60.2321 73.8292 60.7014 76.1231C61.1707 78.4171 62.7051 80.7471 64.8893 81C66.1742 80.9918 67.4288 80.6089 68.4995 79.8982L82.3087 72.5829C87.0743 70.0542 93.0311 67.5074 96.5872 63.1724C100.004 59.4565 102.404 54.921 103.555 50.005C104.123 47.0539 104.148 44.0239 103.627 41.0641Z" fill="#593D5A"/>
<path d="M142.128 152.952C142.24 153.534 142.407 154.223 142.984 154.435C143.278 154.507 143.589 154.471 143.856 154.333C144.122 154.196 144.323 153.967 144.417 153.693C144.61 153.119 144.61 152.502 144.417 151.928C144.297 151.587 144.259 151.225 144.305 150.869C144.331 150.69 144.421 150.526 144.56 150.403C144.699 150.281 144.879 150.208 145.068 150.198C145.271 150.219 145.464 150.292 145.627 150.41C147.844 151.813 149.425 153.955 150.055 156.412C150.065 156.519 150.099 156.623 150.153 156.717C150.208 156.811 150.282 156.894 150.372 156.959C150.707 157.118 151.06 156.783 151.246 156.465C151.985 154.942 152.188 153.233 151.823 151.592C151.437 149.387 150.537 147.292 149.188 145.459C147.839 143.627 146.075 142.103 144.026 141C144.026 141 142.166 142.96 142.035 143.119C141.25 143.748 140.43 144.338 139.579 144.884C138.649 145.519 138.983 145.996 139.579 146.773C140.178 147.637 140.689 148.553 141.105 149.509C141.569 150.62 141.912 151.774 142.128 152.952Z" fill="#C29687"/>
<path d="M95 58L99.7328 90.9314C100.902 99.0421 102.876 106.718 108.303 112.892C117.22 125.565 128.787 136.717 139.732 147C142.729 145.805 145.214 144.266 146 141.732L120.162 105.36L114.79 78.6025C113.273 67.74 106.037 59.0862 95 58Z" fill="#0E7500"/>
<path d="M2.04712 182.087L0.0056839 221.924C-0.0533524 223.09 0.349197 224.233 1.12487 225.1C1.90054 225.968 2.98601 226.489 4.14281 226.551L70.3537 229.993C70.9262 230.025 71.4993 229.942 72.0398 229.749C72.5802 229.557 73.0773 229.257 73.5024 228.869C73.9275 228.482 74.272 228.013 74.5161 227.489C74.7602 226.966 74.899 226.4 74.9244 225.822L76.9658 186.058C77.0114 185.701 77.0114 185.34 76.9658 184.983C76.7749 184.021 76.272 183.149 75.5361 182.506C74.8003 181.863 73.8733 181.485 72.901 181.431L6.70811 178.007C5.73573 177.952 4.77299 178.227 3.97388 178.788C3.17478 179.349 2.58545 180.165 2.30007 181.104C2.18349 181.422 2.09875 181.752 2.04712 182.087Z" fill="#593D5A"/>
<path opacity="0.1" d="M2 181.105C3.30656 196.341 18.6948 208.934 38.1299 209.936C57.5649 210.939 74.151 200.004 77 184.987C76.8083 184.024 76.3031 183.152 75.5639 182.508C74.8248 181.865 73.8936 181.487 72.917 181.433L6.42778 178.007C5.45104 177.952 4.48399 178.227 3.6813 178.788C2.87862 179.35 2.28666 180.166 2 181.105Z" fill="black"/>
<path d="M42.0932 216C42.7378 215.996 43.3569 215.748 43.8246 215.304C44.2922 214.861 44.5734 214.256 44.6107 213.613L44.9965 206.05C45.0139 205.72 44.9659 205.389 44.8551 205.077C44.7444 204.765 44.5731 204.479 44.3512 204.233C44.1293 203.987 43.8611 203.788 43.5619 203.646C43.2627 203.504 42.9384 203.423 42.6076 203.406L35.055 203.003C34.3835 202.972 33.7272 203.208 33.2284 203.658C32.7296 204.108 32.4284 204.737 32.3904 205.407L32.0046 212.953C31.9844 213.286 32.0309 213.62 32.1413 213.935C32.2517 214.25 32.4239 214.54 32.6477 214.788C32.8826 215.042 33.1664 215.247 33.4822 215.389C33.7979 215.531 34.1392 215.607 34.4853 215.614L42.0564 216H42.0932ZM34.9264 204.49L42.479 204.875C42.7541 204.894 43.011 205.019 43.1957 205.224C43.2925 205.323 43.3672 205.441 43.4148 205.57C43.4623 205.7 43.4816 205.839 43.4714 205.977L43.0854 213.522C43.0545 213.794 42.9259 214.047 42.7233 214.233C42.5207 214.418 42.2577 214.524 41.9829 214.531L34.4119 214.127C34.276 214.125 34.142 214.095 34.0185 214.038C33.8951 213.981 33.7849 213.899 33.6952 213.797C33.5059 213.586 33.4068 213.309 33.4195 213.026L33.8054 205.481C33.8148 205.341 33.8516 205.204 33.914 205.079C33.9764 204.953 34.063 204.841 34.1688 204.749C34.2747 204.657 34.3977 204.586 34.5309 204.542C34.664 204.497 34.8047 204.48 34.9448 204.49H34.9264Z" fill="#E6E6E6"/>
<path d="M54.98 181C55.1853 176.97 53.8029 173.022 51.1369 170.026C48.4709 167.029 44.7397 165.228 40.7641 165.02C36.7885 164.812 32.8942 166.214 29.9379 168.916C26.9815 171.618 25.2053 175.401 25 179.431L27.1857 179.56C27.2683 177.852 27.6844 176.178 28.4098 174.635C29.1351 173.092 30.1553 171.709 31.4113 170.568C33.2827 168.813 35.6305 167.666 38.1513 167.277C40.6722 166.888 43.2502 167.274 45.5525 168.385C47.8547 169.496 49.7754 171.281 51.0663 173.511C52.3573 175.74 52.9592 178.31 52.7943 180.889L54.98 181Z" fill="#CCCCCC"/>
<path d="M45.7393 165.152C46.1282 166.462 46.081 167.857 45.6043 169.139C45.1276 170.421 44.2458 171.525 43.084 172.294C41.2844 173.064 39.2651 173.209 37.3678 172.704C36.0288 172.58 34.7519 172.098 33.6799 171.312C33.091 170.759 32.6366 170.086 32.3496 169.341C32.0626 168.597 31.9501 167.801 32.0203 167.009C32.1685 165.426 32.5601 163.874 33.182 162.403C33.4714 161.456 33.8868 160.55 34.4175 159.707C34.9601 158.867 35.8202 158.265 36.8146 158.029C37.8566 157.946 38.9055 158.042 39.9124 158.315C41.2954 158.475 41.5904 158.136 42.4939 159.314C43.973 161.027 45.0772 163.014 45.7393 165.152Z" fill="#C29687"/>
<path d="M33.06 110.868L34.6225 159.29C37.7111 160.158 40.5817 160.429 42.7983 158.947L46.6863 109.657L60.9121 84.4974C64.8889 107.334 65.3606 130.638 62.3111 153.615C89.5638 159.037 103.935 155.422 108.895 153.507C108.895 153.507 115.654 79.4004 95.7411 58H91.199L79.5529 58.1988L66.0176 58.3976C62.755 58.4598 59.564 59.3616 56.7558 61.015C53.9476 62.6685 51.6177 65.0172 49.993 67.8326L38.6922 87.4436C34.5793 94.5465 32.623 102.683 33.06 110.868Z" fill="#338528"/>
<path d="M90 57.975C89.0879 52.2096 87.675 46.5308 85.7767 41L75.9907 42.1826C75.7409 47.573 75.0755 52.9373 74 58.2298C77.3302 60.6132 86.614 60.6495 90 57.975Z" fill="#C29687"/>
<g style="mix-blend-mode:soft-light" opacity="0.5">
<path d="M76.4785 42.1849L85.9625 41C86.7198 43.1511 87.387 45.4662 88 47.9089C87.4212 49.5556 86.5404 51.077 85.4036 52.3934C84.19 53.8381 82.6031 54.9134 80.8202 55.4992C79.0372 56.0851 77.1283 56.1585 75.3065 55.7111L75 55.6199C75.8025 51.182 76.2965 46.6927 76.4785 42.1849Z" fill="black"/>
</g>
<path d="M87.6561 95C90.4386 89.588 92.3973 64.332 89.743 58C86.7775 60.0566 76.9289 60.0746 74 58.2526C78.6497 68.9503 86.3381 81.921 87.6561 95Z" fill="white"/>
<path d="M92.9987 36.3176C93.046 40.017 91.7654 43.6149 89.3811 46.4819C88.1618 47.886 86.5704 48.9322 84.7829 49.5051C82.9953 50.078 81.0811 50.1551 79.2517 49.7281C76.4922 48.7438 74.1572 46.8668 72.6315 44.4065C68.7217 38.8018 67.2025 31.9196 68.3988 25.2309C68.4324 24.5637 68.7158 23.9321 69.1947 23.4571C69.5046 23.2242 69.8708 23.0741 70.2575 23.0212C70.6442 22.9684 71.0384 23.0146 71.4015 23.1555C77.4695 25.4872 84.0287 26.3218 90.5026 25.5857C92.022 25.4438 92.0401 27.9095 92.3114 29.2221C92.707 31.5689 92.9367 33.9397 92.9987 36.3176Z" fill="#C29687"/>
<circle cx="88" cy="30" r="1" fill="#593D5A"/>
<circle cx="76" cy="30" r="1" fill="#593D5A"/>
<path d="M79.6646 42.6201C79.6646 42.6201 81.1427 44.4142 83.8611 43.7403C86.5795 43.0664 87.1013 41.9793 87.1013 41.9793" stroke="#593D5A" stroke-width="0.5" stroke-linecap="round"/>
</svg>
