<svg width="303" height="328" viewBox="0 0 303 328" fill="none" xmlns="http://www.w3.org/2000/svg">
<path opacity="0.07" d="M235.5 298C272.779 298 303 295.538 303 292.5C303 289.462 272.779 287 235.5 287C198.221 287 168 289.462 168 292.5C168 295.538 198.221 298 235.5 298Z" fill="black"/>
<path d="M245.102 78.5145C243.874 79.0795 242.473 79.1544 241.191 78.7234C239.908 78.2924 238.844 77.3889 238.218 76.2009C236.435 72.6171 235.233 68.7781 234.657 64.8248C233.837 60.0651 233.45 53.6992 235.551 49.3374C236.275 47.5105 237.692 46.0353 239.499 45.226C241.347 44.5482 242.867 45.1081 244.655 48.1732C243.21 40.425 244.477 32.4212 248.246 25.48C248.859 24.071 249.901 22.8862 251.226 22.0907C251.933 21.7679 252.715 21.6438 253.488 21.7322C254.261 21.8206 254.994 22.118 255.607 22.5917C256.221 23.0728 256.686 23.7145 256.949 24.4438C257.213 25.1732 257.264 25.961 257.097 26.7177C258.349 23.2699 259.999 19.9767 262.015 16.9036C264.046 13.7809 267.12 11.4607 270.702 10.3461C272.682 9.74288 274.823 9.93339 276.662 10.8766C277.682 11.5444 278.52 12.4502 279.102 13.5142C279.685 14.5782 279.993 15.7676 280 16.9773C279.966 19.4026 279.353 21.7857 278.212 23.9327C276.296 27.8501 273.617 31.3554 270.329 34.2478C271.493 33.1805 272.861 32.3539 274.353 31.8164C275.034 31.5401 275.787 31.4854 276.502 31.6602C277.218 31.8351 277.858 32.2304 278.331 32.789C278.606 33.225 278.775 33.7181 278.824 34.2296C278.873 34.741 278.801 35.2568 278.614 35.7362C278.271 36.6742 277.767 37.5466 277.124 38.315C273.766 42.5052 269.66 46.0512 265.01 48.7774C272.833 45.9923 269.838 52.1077 269.271 53.1982C264.114 62.9399 256.555 71.237 247.293 77.3209C246.592 77.7693 245.86 78.1682 245.102 78.5145Z" fill="#319F7E"/>
<path d="M270 21C266.861 25.3368 263.693 29.5724 260.723 34.0104C257.707 38.3891 255.035 43.0054 252.733 47.8159C250.466 52.6431 248.51 57.617 246.879 62.7055C245.267 67.8085 243.655 72.9115 242 78C243.513 72.8537 245.04 67.7362 246.638 62.6188C248.232 57.5025 250.155 52.4995 252.394 47.6424C254.737 42.8369 257.451 38.2301 260.511 33.8659C263.467 29.4279 266.747 25.2067 270 21Z" fill="#15694F"/>
<path d="M228.442 46.9833C230.673 44.9274 233.389 44.4097 234.959 45.5042C235.975 46.5188 236.748 47.753 237.22 49.1132C238.893 53.7426 239.398 58.7189 238.687 63.5936C237.871 68.4859 236.663 73.3036 235.077 78C229.647 77.1913 224.49 75.0752 220.044 71.8309C215.598 68.5867 211.994 64.3099 209.537 59.3633C208.883 58.123 208.451 56.7762 208.261 55.3847C208.172 54.6892 208.225 53.9828 208.417 53.3087C208.608 52.6347 208.935 52.0073 209.376 51.465C209.836 50.9363 210.448 50.5662 211.128 50.407C211.807 50.2478 212.519 50.3075 213.163 50.5776C210.15 48.58 207.718 45.8111 206.116 42.5544C204.514 39.2978 203.8 35.6706 204.048 32.0445C204.108 30.8471 204.424 29.6767 204.973 28.613C205.257 28.0876 205.661 27.6371 206.151 27.2979C206.64 26.9587 207.202 26.7404 207.791 26.6606C208.383 26.6043 208.976 26.7646 209.461 27.1121C209.946 27.4597 210.291 27.9714 210.433 28.5538C209.562 22.0041 210.449 15.3389 213.001 9.25167C213.524 7.8036 214.283 6.45377 215.247 5.25809C215.771 4.55678 216.449 3.9877 217.229 3.59583C218.008 3.20395 218.867 3 219.738 3C220.609 3 221.469 3.20395 222.248 3.59583C223.028 3.9877 223.706 4.55678 224.23 5.25809C225.435 6.78525 226.287 8.56375 226.725 10.4644C228.457 16.721 225.595 29.5892 225.595 29.5892C225.595 29.5892 227.136 23.6728 230.072 23.4065C231.774 23.5692 232.904 25.2702 233.521 26.8677C234.883 30.3373 235.126 34.1513 234.214 37.7678C233.302 41.3842 231.283 44.6192 228.442 47.0129V46.9833Z" fill="#66B88D"/>
<path d="M219.38 12C218.026 17.7168 217.317 23.5728 217.265 29.454C217.252 35.3247 217.988 41.172 219.453 46.8489C220.896 52.53 222.982 58.0201 225.669 63.2084C228.366 68.398 231.488 73.346 235 78C231.36 73.4378 228.157 68.5291 225.437 63.3416C222.701 58.149 220.566 52.649 219.076 46.9525C217.635 41.2329 216.939 35.3445 217.004 29.4392C217.076 23.5473 217.874 17.6882 219.38 12Z" fill="#15694F"/>
<path d="M247.622 119H228.393C227.295 119.002 226.23 118.619 225.379 117.917C224.527 117.215 223.942 116.236 223.721 115.147L215.04 72.261C214.983 71.9872 214.987 71.704 215.052 71.432C215.118 71.1601 215.242 70.9064 215.417 70.6895C215.591 70.4727 215.812 70.2981 216.062 70.1788C216.312 70.0595 216.585 69.9984 216.861 70H259.139C259.415 69.9984 259.688 70.0595 259.938 70.1788C260.188 70.2981 260.409 70.4727 260.583 70.6895C260.758 70.9064 260.882 71.1601 260.948 71.432C261.013 71.704 261.017 71.9872 260.96 72.261L252.278 115.147C252.061 116.235 251.479 117.214 250.63 117.916C249.781 118.618 248.718 119.001 247.622 119Z" fill="#A88787"/>
<g style="mix-blend-mode:soft-light" opacity="0.2">
<path d="M259.035 70.0013H241C244.332 78.3516 245.991 87.2637 245.885 96.2411C245.94 103.968 244.737 111.652 242.323 119H247.312C248.434 119.001 249.521 118.618 250.39 117.916C251.258 117.214 251.854 116.235 252.077 115.147L260.959 72.2624C261.019 71.9835 261.013 71.6949 260.943 71.4185C260.873 71.142 260.74 70.885 260.555 70.667C260.369 70.449 260.136 70.2757 259.873 70.1604C259.609 70.045 259.323 69.9906 259.035 70.0013Z" fill="black"/>
</g>
<path d="M172 122.329V287.662C172 288.547 172.351 289.396 172.976 290.022C173.601 290.648 174.448 291 175.332 291H291.677C292.114 291 292.547 290.914 292.951 290.746C293.354 290.578 293.721 290.332 294.03 290.022C294.339 289.712 294.583 289.344 294.75 288.939C294.916 288.534 295.001 288.1 295 287.662V122.329C295 121.446 294.65 120.599 294.027 119.975C293.403 119.351 292.558 119 291.677 119H175.296C174.42 119.01 173.583 119.364 172.966 119.987C172.349 120.61 172.002 121.451 172 122.329Z" fill="white"/>
<path d="M289 126H179V197H289V126Z" fill="#CCCCCC"/>
<path d="M289 284H178V205H289V284ZM178.96 283.028H288.031V206H178.96V283.028Z" fill="#CCCCCC"/>
<path d="M289 245H178V205H289V245ZM178.564 244.435H288.491V205.575H178.564V244.435Z" fill="#CCCCCC"/>
<path d="M289 283H178V244H289V283ZM178.564 282.44H288.491V244.551H178.564V282.44Z" fill="#CCCCCC"/>
<path d="M246 225.185V224.815C246 223.26 244.637 222 242.956 222H224.044C222.363 222 221 223.26 221 224.815V225.185C221 226.74 222.363 228 224.044 228H242.956C244.637 228 246 226.74 246 225.185Z" fill="#484B69"/>
<path d="M246 264.185V263.815C246 262.26 244.637 261 242.956 261H224.044C222.363 261 221 262.26 221 263.815V264.185C221 265.74 222.363 267 224.044 267H242.956C244.637 267 246 265.74 246 264.185Z" fill="#484B69"/>
<g style="mix-blend-mode:hard-light" opacity="0.05">
<path d="M201.343 237.747C191.433 237.755 181.566 236.442 172 233.841V291H295V187C284.803 202.599 270.904 215.405 254.554 224.264C238.205 233.122 219.919 237.756 201.343 237.747Z" fill="black"/>
</g>
<path d="M203 197V132H187V197H203Z" fill="#5991C0"/>
<path d="M199 182V137H191V182H199Z" fill="white"/>
<path d="M195 194C197.209 194 199 192.209 199 190C199 187.791 197.209 186 195 186C192.791 186 191 187.791 191 190C191 192.209 192.791 194 195 194Z" fill="white"/>
<path d="M228 197V137H212V197H228Z" fill="#F0CE71"/>
<path d="M224 183V141H216V183H224Z" fill="white"/>
<path d="M220 194C222.209 194 224 192.433 224 190.5C224 188.567 222.209 187 220 187C217.791 187 216 188.567 216 190.5C216 192.433 217.791 194 220 194Z" fill="white"/>
<path d="M280 197V132H264V197H280Z" fill="#319F7E"/>
<path d="M276 182V137H268V182H276Z" fill="white"/>
<path d="M272 194C274.209 194 276 192.209 276 190C276 187.791 274.209 186 272 186C269.791 186 268 187.791 268 190C268 192.209 269.791 194 272 194Z" fill="white"/>
<path d="M246.356 166.325C245.379 178.481 246.541 181.827 248.3 181.994C250.06 182.16 251.735 179.091 252.712 166.944C253.688 154.797 251.87 138 251.87 138C251.87 138 247.332 154.178 246.356 166.325Z" fill="#2E6957"/>
<path d="M249.234 171.833C247.185 181.773 247.959 184.661 249.584 184.973C251.208 185.286 253.059 182.923 255.108 173.019C257.158 163.115 256.997 149 256.997 149C256.997 149 251.284 161.892 249.234 171.833Z" fill="#66B88D"/>
<path d="M246.646 166.325C247.622 178.481 246.453 181.827 244.695 181.994C242.937 182.16 241.264 179.091 240.288 166.944C239.312 154.797 241.129 138 241.129 138C241.129 138 245.671 154.178 246.646 166.325Z" fill="#2E6957"/>
<path d="M250 164.552C250 178.356 248.423 182 246.495 182C244.568 182 243 178.365 243 164.543C243 150.72 246.523 132 246.523 132C246.523 132 250.009 150.748 250 164.552Z" fill="#319F7E"/>
<path d="M243.766 171.833C245.815 181.773 245.041 184.661 243.416 184.973C241.792 185.286 239.941 182.923 237.892 173.019C235.842 163.115 236.003 149 236.003 149C236.003 149 241.716 161.892 243.766 171.833Z" fill="#66B88D"/>
<path d="M252.508 197H241.483L238 179H256L252.508 197Z" fill="#8A6F6F"/>
<g style="mix-blend-mode:soft-light" opacity="0.5">
<path d="M256 179L252.508 197H247C248.737 190.396 249.192 184.238 247 179H256Z" fill="black"/>
</g>
<path opacity="0.07" d="M76.5 328C103.838 328 126 325.761 126 323C126 320.239 103.838 318 76.5 318C49.162 318 27 320.239 27 323C27 325.761 49.162 328 76.5 328Z" fill="black"/>
<path d="M106.074 166.579C105.42 168.08 104.371 169.375 103.038 170.325C101.704 171.276 100.138 171.847 98.5051 171.977C98.0114 172.034 97.5113 171.986 97.0374 171.837C96.5634 171.687 96.1263 171.44 95.7545 171.11C95.2742 170.548 95.0084 169.834 95.0043 169.094C94.9706 168.257 95.1363 167.423 95.4877 166.662C96.4672 164.99 97.893 163.623 99.6055 162.714C99.0957 162.996 98.5209 163.139 97.9384 163.13C97.6421 163.113 97.3638 162.982 97.1619 162.765C96.96 162.547 96.8499 162.261 96.8547 161.964C96.9775 161.547 97.2586 161.194 97.6382 160.981L101.639 157.966C103.306 156.666 105.84 156.433 106.524 158.815C107.288 161.376 107.129 164.123 106.074 166.579Z" fill="#FFCEBF"/>
<path d="M45.7521 165L40 228.833L48.7406 311.013C52.0679 312.329 55.7607 312.329 59.088 311.013L61.3375 231.768L71.6687 181.863L92.6848 311.013C96.0014 312.327 99.6834 312.327 103 311.013L97.4889 165H45.7521Z" fill="#CCCCCC"/>
<path d="M60 58.9753C61.9438 53.1489 63.1053 47.1084 63.4565 41H77.1032C77.2465 47.1699 78.5673 53.2623 81 58.9753C77.6746 60.3118 74.1053 61 70.5 61C66.8947 61 63.3254 60.3118 60 58.9753Z" fill="#FFCEBF"/>
<g style="mix-blend-mode:soft-light" opacity="0.5">
<path d="M77.807 41H64.0058C63.8304 43.9118 63.4947 46.8118 63 49.687C64.0767 51.5521 65.6181 53.1093 67.4753 54.2081C69.3324 55.307 71.4427 55.9103 73.6023 55.96C75.7988 56.134 78.0031 55.738 80 54.8105C78.6357 50.3291 77.8977 45.682 77.807 41Z" fill="black"/>
</g>
<path d="M88 60C88 60 106.024 62.3284 110.367 93.6014C114.807 125.359 108.908 158.54 107.794 158.46C105.485 159.18 103.008 159.18 100.699 158.46L93.5876 85.8398L88 60Z" fill="#46B737"/>
<path d="M12 92.5748C10.5769 90.2295 9.78141 87.575 9.68614 84.8538C9.69821 84.4031 9.64376 83.953 9.52437 83.5172C9.4582 83.34 9.34052 83.1853 9.18572 83.0717C9.03092 82.9581 8.84559 82.8906 8.65212 82.8772C8.45865 82.8639 8.26542 82.9054 8.0957 82.9966C7.92598 83.0879 7.78711 83.225 7.69592 83.3914C7.29771 84.2655 7.092 85.2109 7.092 86.1669C7.092 87.1229 7.29771 88.0682 7.69592 88.9423C4.84808 88.5177 3.16521 83.9889 3.79626 81.0798C3.83748 80.9072 3.82425 80.7267 3.75824 80.5617C3.69223 80.3966 3.57648 80.2546 3.42621 80.1544C3.27594 80.0542 3.09815 80.0004 2.91591 80C2.73368 79.9996 2.55551 80.0526 2.40473 80.152C1.40142 80.8027 0.65877 81.7687 0.301227 82.8882C-0.162605 84.6367 -0.0894719 86.4789 0.511587 88.1875C1.60413 91.9449 3.7365 95.3389 6.67651 98C8.4726 96.2702 10.1877 94.3675 12 92.5748Z" fill="#FFCEBF"/>
<path d="M60.9996 64.3919C61.0813 80.3912 48.445 107.43 42.0205 120.917C41.5225 121.973 40.8145 122.921 39.9378 123.706C39.0612 124.491 38.0336 125.097 36.915 125.488C35.7964 125.88 34.6092 126.05 33.4228 125.987C32.2365 125.925 31.0748 125.632 30.0055 125.125C17.1566 119.093 3 96.9504 3 96.9504C4.87949 93.8784 7.75752 91.5123 11.1736 90.2307L31.6074 109.174C33.1114 80.5031 45.0284 64.9998 52.2375 60.152C53.4145 59.896 55.3107 59.336 57.1416 59C58.2678 59.4092 59.2402 60.1443 59.9293 61.1074C60.6184 62.0705 60.9918 63.2161 60.9996 64.3919Z" fill="#46B737"/>
<path d="M102.861 148.086C102.765 154.127 102.765 165.185 97.774 167.474C87.3418 172.216 62.1626 172.135 48.6071 167.474C46.5786 166.776 44.4374 166.354 43.3588 164.324C41.9606 161.365 41.0783 158.184 40.7507 154.922C39.994 143.653 39.8491 133.456 40.1389 124.265C41.443 80.9912 52.1328 60.4016 52.648 59.4435C53.8071 59.1837 55.6746 58.6154 57.4778 58.2744C58.6255 58.0308 59.8012 57.9487 60.9712 58.0308C67.8778 61.0186 75.1064 60.093 81.0631 58.2257C83.3331 58.4368 85.5386 58.6966 87.5993 59.0051C89.3509 59.4996 90.8414 60.665 91.7528 62.2526C103.425 83.8653 103.296 119.589 102.861 148.086Z" fill="#F2FFF2"/>
<path d="M90.9539 81H74.0461C74.0206 81 74 81.0266 74 81.0593V86.9409C74 86.9736 74.0206 87 74.0461 87H90.9539C90.9794 87 91 86.9736 91 86.9409V81.0593C91 81.0266 90.9794 81 90.9539 81Z" fill="#E0E0E0"/>
<path d="M55 19.8567L55.3228 34.4538C55.3228 37.7222 58.8892 50.9865 69.4433 50.9706C76.5116 51.399 80.7397 47.0993 82.6116 41.2129C85.0323 33.5018 85 19 85 19C85 19 61.7294 19.4601 55 19.8567Z" fill="#FFCEBF"/>
<path d="M55.2947 31.0242C53.8923 30.4088 52.6755 29.4428 51.7634 28.2208C50.8514 26.9989 50.2755 25.563 50.0922 24.054C49.7457 21.0144 50.3812 17.9442 51.9074 15.2852C53.3222 12.3918 55.6965 10.0672 58.6334 8.70046C57.191 7.84927 55.7972 6.99805 54.3548 6.16292C53.9496 5.92202 53.512 5.6009 53.512 5.15122C53.512 4.70153 54.2899 4.26786 54.9058 4.20362C58.9681 3.75382 63.0794 4.05882 67.0288 5.10299C65.8943 4.20362 64.857 3.49696 63.7873 2.58152C63.2849 2.18002 62.7339 1.66609 62.8149 0.975503C62.8712 0.722381 63.0063 0.493221 63.2011 0.320312C63.396 0.147402 63.6407 0.0395227 63.9008 0.0119287C64.4194 -0.0318134 64.9411 0.0451086 65.4243 0.236697C68.7398 1.30619 71.7928 3.05133 74.387 5.35991C76.0552 5.27253 77.7229 5.5382 79.2795 6.1391C80.836 6.74 82.2456 7.66243 83.4145 8.84505C85.3712 11.1494 86.6943 13.9154 87.2556 16.8752C88.4712 21.9984 88.3739 27.6837 85.6349 32.1324C85.3756 32.566 85.0028 33.0156 84.5004 32.9996C83.9979 32.9835 83.5603 32.309 83.3983 31.7148C82.8958 29.9 82.7986 27.9727 82.28 26.1579C82.0912 25.2302 81.7043 24.3532 81.1452 23.5859C80.5861 22.8186 79.8678 22.1787 79.0385 21.7093C77.4785 21.1545 75.7896 21.0596 74.1763 21.4362L69.5248 22.0626C68.9884 22.1524 68.4405 22.1524 67.9041 22.0626C67.6232 22.0151 67.36 21.895 67.1409 21.7146C66.9218 21.5341 66.7546 21.2996 66.6561 21.0347C66.6146 20.9018 66.6012 20.7619 66.6167 20.6237C66.6322 20.4855 66.6764 20.352 66.7464 20.2314C66.8163 20.1108 66.9106 20.0058 67.0234 19.923C67.1361 19.8402 67.2649 19.7812 67.4016 19.7499C66.118 19.4808 64.7903 19.4952 63.5129 19.7922C62.2356 20.0893 61.04 20.6615 60.0111 21.4684C57.1424 23.765 55.9754 27.5873 55.2947 31.0242Z" fill="#FBC36C"/>
<path d="M48.1329 311C45.0851 313.419 42.1373 315.23 39.0896 317.665C38.439 318.149 37.8763 318.734 37.4241 319.395C37.1903 319.732 37.048 320.119 37.0102 320.522C36.9724 320.925 37.0402 321.331 37.2076 321.702C37.7738 322.776 39.2561 323 40.5385 323C44.3585 322.916 48.1076 321.989 51.4971 320.292C53.5514 319.388 55.3887 318.084 56.8932 316.463C57.6325 315.753 58.2019 314.896 58.5614 313.953C58.921 313.009 59.0622 312.002 58.975 311C55.4913 312.32 51.6166 312.32 48.1329 311Z" fill="#FBC36C"/>
<path d="M102.865 311C105.913 313.419 108.862 315.23 111.91 317.665C112.561 318.149 113.124 318.734 113.576 319.395C113.81 319.732 113.952 320.119 113.99 320.522C114.028 320.925 113.96 321.331 113.792 321.702C113.226 322.776 111.743 323 110.461 323C106.64 322.916 102.89 321.989 99.5003 320.292C97.4456 319.388 95.608 318.084 94.1033 316.463C93.3702 315.749 92.805 314.891 92.4458 313.949C92.0866 313.006 91.9417 312.001 92.0211 311C95.5054 312.32 99.3808 312.32 102.865 311Z" fill="#FBC36C"/>
<circle cx="76" cy="29" r="1" fill="#593D5A"/>
<circle cx="64" cy="29" r="1" fill="#593D5A"/>
<path d="M63.7095 44.0879C63.7095 44.0879 66.4501 46.7807 70.8019 45.2019C75.1536 43.6231 75.8229 41.7457 75.8229 41.7457" stroke="#593D5A" stroke-width="0.5" stroke-linecap="round"/>
</svg>
